<?xml version="1.0" encoding="UTF-8" standalone="no"?>
<!-- Created with Inkscape (http://www.inkscape.org/) -->

<svg
   xmlns:dc="http://purl.org/dc/elements/1.1/"
   xmlns:cc="http://creativecommons.org/ns#"
   xmlns:rdf="http://www.w3.org/1999/02/22-rdf-syntax-ns#"
   xmlns:svg="http://www.w3.org/2000/svg"
   xmlns="http://www.w3.org/2000/svg"
   xmlns:sodipodi="http://sodipodi.sourceforge.net/DTD/sodipodi-0.dtd"
   xmlns:inkscape="http://www.inkscape.org/namespaces/inkscape"
   width="744.09448819"
   height="1052.3622047"
   id="svg2"
   version="1.1"
   inkscape:version="0.48.4 r9939"
   sodipodi:docname="archer.svg">
  <defs
     id="defs4" />
  <sodipodi:namedview
     id="base"
     pagecolor="#ffffff"
     bordercolor="#666666"
     borderopacity="1.0"
     inkscape:pageopacity="0.0"
     inkscape:pageshadow="2"
     inkscape:zoom="0.35"
     inkscape:cx="-127.85714"
     inkscape:cy="520"
     inkscape:document-units="px"
     inkscape:current-layer="layer1"
     showgrid="false"
     inkscape:window-width="1855"
     inkscape:window-height="1056"
     inkscape:window-x="65"
     inkscape:window-y="24"
     inkscape:window-maximized="1" />
  <metadata
     id="metadata7">
    <rdf:RDF>
      <cc:Work
         rdf:about="">
        <dc:format>image/svg+xml</dc:format>
        <dc:type
           rdf:resource="http://purl.org/dc/dcmitype/StillImage" />
        <dc:title></dc:title>
      </cc:Work>
    </rdf:RDF>
  </metadata>
  <g
     inkscape:label="Layer 1"
     inkscape:groupmode="layer"
     id="layer1">
    <path
       sodipodi:type="star"
       style="fill:#00821a;fill-rule:evenodd;stroke:#000000;stroke-width:1px;stroke-linecap:butt;stroke-linejoin:miter;stroke-opacity:1;fill-opacity:1"
       id="path2985"
       sodipodi:sides="3"
       sodipodi:cx="280"
       sodipodi:cy="160.93361"
       sodipodi:r1="236.05603"
       sodipodi:r2="118.02801"
       sodipodi:arg1="2.2360858"
       sodipodi:arg2="3.2832834"
       inkscape:flatsided="true"
       inkscape:rounded="0"
       inkscape:randomized="0"
       d="M 134.28571,346.64789 192.02386,-58.115812 513.69043,194.26875 z"
       inkscape:transform-center-x="36.961491"
       inkscape:transform-center-y="-77.281113"
       transform="matrix(0.9284326,0.37150089,-0.37150089,0.9284326,89.719045,-1.8925643)" />
    <path
       style="fill:none;stroke:#000000;stroke-width:5.5;stroke-linecap:butt;stroke-linejoin:miter;stroke-opacity:1;stroke-miterlimit:4;stroke-dasharray:none"
       d="m 285.71429,149.50504 c -3.04392,15.2196 -2.85715,9.4295 -2.85715,17.14286 0,0.95238 0.30117,1.95363 0,2.85714 -0.67343,2.0203 -2.34064,3.64828 -2.85714,5.71429 -0.46197,1.84789 0.46197,3.86639 0,5.71428 -0.5165,2.06601 -2.4395,3.62605 -2.85714,5.71429 -0.56033,2.80166 1.06111,5.91863 0,8.57143 -1.00043,2.50107 -3.80953,3.80952 -5.71429,5.71428 -0.95238,2.85714 -2.1267,5.64966 -2.85714,8.57143 -0.23099,0.92394 0,1.90476 0,2.85714 0,4.13198 0.60342,16.98289 0,20 -3.70898,18.54489 -2.85714,-6.36753 -2.85714,11.42857 0,3.80953 0,7.61905 0,11.42858 0,0.95238 0.30117,1.95363 0,2.85714 -0.67344,2.0203 -2.34065,3.64828 -2.85715,5.71428 -0.46197,1.84789 0,3.80953 0,5.71429 0,0.95238 0.42592,2.00531 0,2.85714 -1.53567,3.07134 -4.17861,5.50009 -5.71428,8.57143 -0.42592,0.85184 0.42591,2.00531 0,2.85714 -0.60234,1.20468 -2.53048,1.55049 -2.85715,2.85715 -0.92394,3.69578 0,7.61904 0,11.42857 0,1.23071 0.38658,16.3697 0,17.14286 -0.60233,1.20467 -2.43122,1.57939 -2.85714,2.85714 -0.0433,0.12978 -0.20535,13.87501 0,14.28571 0.60234,1.20468 1.57939,2.43123 2.85714,2.85715 2.71053,0.9035 5.71429,0 8.57143,0 0.67895,0 10.7882,0.32018 11.42857,0 1.20468,-0.60234 1.55049,-2.53048 2.85715,-2.85715 2.77183,-0.69296 5.91864,1.06112 8.57143,0 2.50107,-1.00043 3.40442,-4.32837 5.71428,-5.71428 2.02262,-8.7116 7.91637,-1.10104 11.42857,-2.85715 1.20468,-0.60233 1.65247,-2.2548 2.85715,-2.85714 2.69374,-1.34687 5.64965,-2.1267 8.57142,-2.85714 0.92395,-0.23099 2.00531,0.42592 2.85715,0 2.40935,-1.20468 3.47296,-4.22007 5.71428,-5.71429 1.77193,-1.18128 3.94236,-1.67586 5.71429,-2.85714 2.24133,-1.49422 3.80952,-3.80952 5.71428,-5.71429 2.85715,-2.85714 5.71429,-5.71428 8.57143,-8.57142 1.50419,-1.50419 7.80845,-7.04548 8.57143,-8.57143 0.42592,-0.85184 -0.42592,-2.00531 0,-2.85715 1.20468,-2.40935 4.50961,-3.30493 5.71429,-5.71428 1.34687,-2.69374 1.51027,-5.87769 2.85714,-8.57143 0.60234,-1.20468 2.2548,-1.65247 2.85714,-2.85714 0.42592,-0.85184 0,-1.90477 0,-2.85715 0,-1.90476 -0.60234,-3.90727 0,-5.71428 0.42592,-1.27775 2.25481,-1.65247 2.85715,-2.85714 0.32018,-0.64038 0,-10.74963 0,-11.42858 0,-9.52381 0,-19.04762 0,-28.57142 0,-7.61905 0,-15.2381 0,-22.85715 0,-0.67894 0.32018,-10.7882 0,-11.42857 -1.40576,-2.81151 -10.02282,-8.61706 -11.42858,-11.42857 -0.42591,-0.85184 0.42592,-2.00531 0,-2.85714 -0.60233,-1.20468 -1.90476,-1.90477 -2.85714,-2.85715 -0.95238,-0.95238 -1.73648,-2.11003 -2.85714,-2.85714 -1.77193,-1.18128 -3.94236,-1.67586 -5.71429,-2.85714 -2.6009,-1.73394 -6.03903,-7.30523 -8.57143,-8.57143 -2.28571,-1.14286 -6.28571,1.14286 -8.57142,0 -1.20468,-0.60234 -1.90477,-1.90476 -2.85715,-2.85714 -1.90476,0 -3.90727,0.60234 -5.71428,0 -2.55551,-0.85184 -3.30493,-4.50961 -5.71429,-5.71429 -0.85183,-0.42592 -1.90476,0 -2.85714,0 -1.90476,0 -3.90727,0.60234 -5.71429,0 -1.27775,-0.42592 -1.90476,-1.90476 -2.85714,-2.85714"
       id="path3774"
       inkscape:connector-curvature="0" />
  </g>
</svg>
