<?xml version="1.0" encoding="UTF-8" standalone="no"?>
<!-- Created with Inkscape (http://www.inkscape.org/) -->

<svg
   xmlns:dc="http://purl.org/dc/elements/1.1/"
   xmlns:cc="http://creativecommons.org/ns#"
   xmlns:rdf="http://www.w3.org/1999/02/22-rdf-syntax-ns#"
   xmlns:svg="http://www.w3.org/2000/svg"
   xmlns="http://www.w3.org/2000/svg"
   xmlns:sodipodi="http://sodipodi.sourceforge.net/DTD/sodipodi-0.dtd"
   xmlns:inkscape="http://www.inkscape.org/namespaces/inkscape"
   id="svg3336"
   version="1.1"
   inkscape:version="0.91 r13725"
   xml:space="preserve"
   width="375"
   height="375"
   viewBox="0 0 375 375"
   sodipodi:docname="mage_icon.svg"><metadata
     id="metadata3342"><rdf:RDF><cc:Work
         rdf:about=""><dc:format>image/svg+xml</dc:format><dc:type
           rdf:resource="http://purl.org/dc/dcmitype/StillImage" /><dc:title></dc:title></cc:Work></rdf:RDF></metadata><defs
     id="defs3340"><clipPath
       clipPathUnits="userSpaceOnUse"
       id="clipPath3350"><path
         d="M 0,300 300,300 300,0 0,0 0,300 Z"
         id="path3352"
         inkscape:connector-curvature="0" /></clipPath><clipPath
       clipPathUnits="userSpaceOnUse"
       id="clipPath3358"><path
         d="m 50.0015,254.88 240.3555,0 0,-201.2863 -240.3555,0 0,201.2863 z"
         id="path3360"
         inkscape:connector-curvature="0" /></clipPath><clipPath
       clipPathUnits="userSpaceOnUse"
       id="clipPath3374"><path
         d="M 0,300 300,300 300,0 0,0 0,300 Z"
         id="path3376"
         inkscape:connector-curvature="0" /></clipPath><clipPath
       clipPathUnits="userSpaceOnUse"
       id="clipPath3382"><path
         d="m 112,198 56,0 0,-100 -56,0 0,100 z"
         id="path3384"
         inkscape:connector-curvature="0" /></clipPath><clipPath
       clipPathUnits="userSpaceOnUse"
       id="clipPath3398"><path
         d="M 0,300 300,300 300,0 0,0 0,300 Z"
         id="path3400"
         inkscape:connector-curvature="0" /></clipPath><clipPath
       clipPathUnits="userSpaceOnUse"
       id="clipPath3406"><path
         d="m 109.981,211 126.019,0 0,-126 -126.019,0 0,126 z"
         id="path3408"
         inkscape:connector-curvature="0" /></clipPath><clipPath
       clipPathUnits="userSpaceOnUse"
       id="clipPath3422"><path
         d="M 0,300 300,300 300,0 0,0 0,300 Z"
         id="path3424"
         inkscape:connector-curvature="0" /></clipPath><clipPath
       clipPathUnits="userSpaceOnUse"
       id="clipPath3430"><path
         d="m 111.981,209 120.019,0 0,-121 -120.019,0 0,121 z"
         id="path3432"
         inkscape:connector-curvature="0" /></clipPath><clipPath
       clipPathUnits="userSpaceOnUse"
       id="clipPath3446"><path
         d="M 0,300 300,300 300,0 0,0 0,300 Z"
         id="path3448"
         inkscape:connector-curvature="0" /></clipPath><clipPath
       clipPathUnits="userSpaceOnUse"
       id="clipPath3454"><path
         d="m 111.981,209 115.019,0 0,-121 -115.019,0 0,121 z"
         id="path3456"
         inkscape:connector-curvature="0" /></clipPath><clipPath
       clipPathUnits="userSpaceOnUse"
       id="clipPath3470"><path
         d="M 0,300 300,300 300,0 0,0 0,300 Z"
         id="path3472"
         inkscape:connector-curvature="0" /></clipPath><clipPath
       clipPathUnits="userSpaceOnUse"
       id="clipPath3478"><path
         d="m 110,165 125,0 0,-34 -125,0 0,34 z"
         id="path3480"
         inkscape:connector-curvature="0" /></clipPath><clipPath
       clipPathUnits="userSpaceOnUse"
       id="clipPath3494"><path
         d="M 0,300 300,300 300,0 0,0 0,300 Z"
         id="path3496"
         inkscape:connector-curvature="0" /></clipPath><clipPath
       clipPathUnits="userSpaceOnUse"
       id="clipPath3502"><path
         d="m 135.945,136.115 43.107,0 0,-41.1384 -43.107,0 0,41.1384 z"
         id="path3504"
         inkscape:connector-curvature="0" /></clipPath><clipPath
       clipPathUnits="userSpaceOnUse"
       id="clipPath3518"><path
         d="M 0,300 300,300 300,0 0,0 0,300 Z"
         id="path3520"
         inkscape:connector-curvature="0" /></clipPath><clipPath
       clipPathUnits="userSpaceOnUse"
       id="clipPath3526"><path
         d="m 145.299,128.191 27.408,0 0,-24.557 -27.408,0 0,24.557 z"
         id="path3528"
         inkscape:connector-curvature="0" /></clipPath><clipPath
       clipPathUnits="userSpaceOnUse"
       id="clipPath3542"><path
         d="M 0,300 300,300 300,0 0,0 0,300 Z"
         id="path3544"
         inkscape:connector-curvature="0" /></clipPath></defs><sodipodi:namedview
     pagecolor="#ffffff"
     bordercolor="#666666"
     borderopacity="1"
     objecttolerance="10"
     gridtolerance="10"
     guidetolerance="10"
     inkscape:pageopacity="0"
     inkscape:pageshadow="2"
     inkscape:window-width="640"
     inkscape:window-height="480"
     id="namedview3338"
     showgrid="false"
     inkscape:zoom="2.2613333"
     inkscape:cx="187.5"
     inkscape:cy="187.5"
     inkscape:window-x="0"
     inkscape:window-y="0"
     inkscape:window-maximized="1"
     inkscape:current-layer="g3344" /><g
     id="g3344"
     inkscape:groupmode="layer"
     inkscape:label="mage_icon"
     transform="matrix(1.25,0,0,-1.25,0,375)"><g
       id="g3346"><g
         id="g3348"
         clip-path="url(#clipPath3350)"><g
           id="g3354"><g
             id="g3356" /><g
             id="g3362"><g
               clip-path="url(#clipPath3358)"
               id="g3364"><g
                 transform="translate(262.0156,150.2354)"
                 id="g3366"><path
                   d="m 0,0 c 0,11.549 -11.775,10.438 -19.527,16.477 -17.235,35.154 -56.409,51.369 -79.438,47.108 -15.866,-2.935 -40.143,-13.397 -44.171,-26.742 -1.968,-6.517 3.094,-11.216 1.676,-15.807 -3.665,-11.861 -9.825,-15.841 -10.562,-21.271 -0.261,-5.465 3.087,-6.128 9.721,-23.128 1.612,-4.131 -2.954,-8.782 -0.835,-14.962 3.938,-11.49 30.119,-23.689 44.171,-26.488 22.854,-4.555 63.1,11.2 79.438,48.496 C -10.02,-8.771 0,-10.313 0,0 m 27.984,-57.941 c -3,4 -26.92,8.706 -31.92,6.706 -5,-2 -1.14,-12.294 -11.4,-11.177 -10.83,1.118 -6.68,-6.676 -8.68,-12.176 -2,-5.5 2.34,-16.147 6.84,-15.647 4.5,0.5 6.66,10 19.16,2 12.5,-8 29,26.294 26,30.294 m -187.738,80.433 c 1.932,9.029 4.617,19.21 7.066,24.313 -1.776,4.045 -10.088,18.41 -16.252,23.191 -17.624,8.298 -10.049,-23.339 -24.018,-33.815 -34.596,-25.951 -11.655,-23.571 -10.95,-28.331 7.046,-1.925 23.123,-1.98 30.885,-2.848 2.132,6.962 11.014,6.957 13.269,17.49 m 86.949,56.263 c 2.647,3.605 4.606,17.649 6.018,23.319 -10.748,5.886 -27.373,0.115 -29.766,-2.011 -2.392,-2.127 -0.92,-23.177 -0.92,-23.177 0,0 17.121,1.789 24.668,1.869 m -94.211,-139.99 c -4.5,-1 -17.5,-6 -21,-12 5.5,-6 33.5,-24.5 47.069,-23.356 0.93,4.544 1.175,14.77 0.931,20.356 -7,3 -24.5,12 -27,15"
                   style="fill:#3c550b;fill-opacity:1;fill-rule:evenodd;stroke:none"
                   id="path3368"
                   inkscape:connector-curvature="0" /></g></g></g></g></g></g><g
       id="g3370"><g
         id="g3372"
         clip-path="url(#clipPath3374)"><g
           id="g3378"><g
             id="g3380" /><g
             id="g3386"><g
               clip-path="url(#clipPath3382)"
               id="g3388"><g
                 transform="translate(140,198)"
                 id="g3390"><path
                   d="m 0,0 c -15.464,0 -28,-22.386 -28,-50 0,-27.614 12.536,-50 28,-50 15.464,0 28,22.386 28,50 C 28,-22.386 15.464,0 0,0"
                   style="fill:#2d2255;fill-opacity:1;fill-rule:nonzero;stroke:none"
                   id="path3392"
                   inkscape:connector-curvature="0" /></g></g></g></g></g></g><g
       id="g3394"><g
         id="g3396"
         clip-path="url(#clipPath3398)"><g
           id="g3402"><g
             id="g3404" /><g
             id="g3410"><g
               clip-path="url(#clipPath3406)"
               id="g3412"><g
                 transform="translate(225,162)"
                 id="g3414"><path
                   d="m 0,0 c -10.363,28.904 -37.699,49 -58,49 -13.607,0 -41.086,-6.223 -46,-21 -2.377,-7.149 3.675,-12.968 2,-18 -4.403,-13.229 -12.061,-17.675 -13,-24 -0.334,-6.384 3.899,-7.045 12,-26 1.913,-4.476 -3.561,-10.294 -1,-17 4.813,-12.604 34.036,-20 46,-20 19.781,0 48.031,19.827 58,51 5.482,6.171 11,5.193 11,13 0,8.743 -6.512,8.086 -11,13"
                   style="fill:#241b46;fill-opacity:1;fill-rule:nonzero;stroke:none"
                   id="path3416"
                   inkscape:connector-curvature="0" /></g></g></g></g></g></g><g
       id="g3418"><g
         id="g3420"
         clip-path="url(#clipPath3422)"><g
           id="g3426"><g
             id="g3428" /><g
             id="g3434"><g
               clip-path="url(#clipPath3430)"
               id="g3436"><g
                 transform="translate(221,162)"
                 id="g3438"><path
                   d="m 0,0 c -10.363,28.904 -33.699,47 -54,47 -13.607,0 -39.086,-4.223 -44,-19 -2.377,-7.149 3.675,-12.968 2,-18 -4.403,-13.229 -12.061,-17.675 -13,-24 -0.334,-6.384 3.899,-7.045 12,-26 1.913,-4.476 -3.561,-10.294 -1,-17 4.813,-12.604 32.036,-17 44,-17 19.781,0 44.031,16.827 54,48 5.482,6.171 11,5.193 11,13 0,8.743 -6.512,8.086 -11,13"
                   style="fill:#3d3166;fill-opacity:1;fill-rule:nonzero;stroke:none"
                   id="path3440"
                   inkscape:connector-curvature="0" /></g></g></g></g></g></g><g
       id="g3442"><g
         id="g3444"
         clip-path="url(#clipPath3446)"><g
           id="g3450"><g
             id="g3452" /><g
             id="g3458"><g
               clip-path="url(#clipPath3454)"
               id="g3460"><g
                 transform="translate(217.252,160.7998)"
                 id="g3462"><path
                   d="m 0,0 c -0.43,0.362 -37.849,17.759 -38.252,18.2 -0.91,2.866 28.994,-6.439 25,0 -14.303,23.062 -18.759,30 -37,30 -13.607,0 -39.086,-4.222 -44,-19 -2.377,-7.149 3.675,-12.968 2,-18 -4.403,-13.229 -12.061,-17.675 -13,-24 -0.334,-6.384 3.899,-7.045 12,-26 1.913,-4.475 -3.561,-10.294 -1,-17 4.814,-12.604 32.036,-17 44,-17 17.705,0 24.74,6.596 37,31 2.991,5.954 -25.047,1.477 -23,4 0.438,0.224 35.653,13.71 35.979,14.03 5.142,5.055 10.021,4.628 10.021,11.97 C 9.748,-3.842 4.354,-3.672 0,0"
                   style="fill:#5a4c89;fill-opacity:1;fill-rule:nonzero;stroke:none"
                   id="path3464"
                   inkscape:connector-curvature="0" /></g></g></g></g></g></g><g
       id="g3466"><g
         id="g3468"
         clip-path="url(#clipPath3470)"><g
           id="g3474"><g
             id="g3476" /><g
             id="g3482"><g
               clip-path="url(#clipPath3478)"
               id="g3484"><g
                 transform="translate(230.7109,148.127)"
                 id="g3486"><path
                   d="M 0,0 C -0.276,0.005 -0.42,3.869 -0.711,3.873 -1.036,3.878 -1.511,0.022 -1.852,0.026 -2.975,0.039 -4.178,0.049 -5.424,0.054 -5.849,0.056 -6.278,4.872 -6.711,4.873 -7.137,4.874 -7.564,0.061 -7.996,0.061 -9.18,0.062 -10.381,0.059 -11.57,0.053 c -0.431,-0.002 -0.714,5.823 -1.141,5.82 -0.577,-0.004 -1.295,-5.836 -1.859,-5.841 -1.51,-0.013 -3.812,-0.135 -5.141,-0.159 -0.651,-0.012 -0.381,3.869 -1,7 -0.153,-1.875 -1.402,-6.977 -2,-7 -1.127,-0.042 -3.016,0.098 -5.408,0.345 -0.457,0.048 -1.059,6.997 -1.592,8.655 -0.264,-1.225 -0.953,-8.375 -1.541,-8.307 -1.809,0.212 -3.791,0.457 -5.872,0.716 -0.647,0.08 -0.779,7.652 -1.587,9.591 -0.766,-1.477 -1.219,-9.096 -2,-9 -3.066,0.375 -6.936,0.687 -10,1 -0.905,0.093 -1.018,9.277 -1,14 -0.864,-1.391 -1.894,-14.162 -3.006,-14.06 -4.711,0.436 -9.346,0.794 -13.468,0.96 -0.776,0.032 -1.79,8.083 -2.526,8.1 -0.776,0.018 -1.273,-8 -2,-8 -3.38,0 -7.567,-0.19 -12.051,-0.487 -0.816,-0.055 -1.616,8.048 -2.949,12.487 -0.748,-3.055 -1.026,-12.771 -1.783,-12.831 -4.007,-0.313 -8.103,-0.686 -11.953,-1.063 -0.864,-0.084 -1.429,4.729 -3.264,7.894 -0.743,-3.171 -0.635,-8.285 -1.291,-8.353 -8.392,-0.87 -14.709,-1.647 -14.709,-1.647 0,0 6.447,-0.53 14.776,-1.144 0.738,-0.055 0.87,-6.616 2.224,-10.856 0.405,2.952 1.351,10.596 2.021,10.548 4.001,-0.286 8.234,-0.574 12.273,-0.823 0.76,-0.046 0.45,-9.423 1.706,-12.725 1.177,3.21 1.896,12.511 2.555,12.474 5.078,-0.285 9.552,-0.474 12.445,-0.474 0.544,0 1.061,-11.008 2,-11 0.598,0.005 1.511,11.023 2.244,11.031 3.426,0.037 8.237,0.105 13.506,0.194 0.983,0.016 1.991,-11.243 2.25,-14.225 0.828,4.344 1.078,13.982 2,14 2.952,0.056 6.934,-0.104 10,0 0.669,0.023 1.412,-6.928 2,-9 0.576,2.317 0.852,9.384 1.692,9.416 1.958,0.076 3.844,0.155 5.59,0.232 0.64,0.028 1.118,-5.818 1.718,-7.648 0.438,2.681 1.1,7.773 1.555,7.794 1.752,0.08 4.265,0.151 5.445,0.206 0.708,0.033 1.287,-4.604 2,-7 0.614,2.991 0.525,6.978 1,7 1.582,0.074 3.719,0.315 5.273,0.393 0.523,0.025 1.21,-5.419 1.727,-5.393 0.382,0.02 0.594,5.512 0.971,5.532 1.324,0.071 2.617,0.145 3.866,0.223 0.384,0.023 0.788,-4.779 1.163,-4.755 0.429,0.028 0.826,4.884 1.242,4.913 1.326,0.094 2.585,0.193 3.752,0.298 0.332,0.03 0.688,-3.242 1.006,-3.211 0.293,0.029 0.551,3.362 0.83,3.393 1.678,0.18 3.096,0.381 4.17,0.607 C 3.316,-0.073 1.819,-0.03 0,0"
                   style="fill:#2e2357;fill-opacity:1;fill-rule:nonzero;stroke:none"
                   id="path3488"
                   inkscape:connector-curvature="0" /></g></g></g></g></g></g><g
       id="g3490"><g
         id="g3492"
         clip-path="url(#clipPath3494)"><g
           id="g3498"><g
             id="g3500" /><g
             id="g3506"><g
               clip-path="url(#clipPath3502)"
               id="g3508"><g
                 transform="translate(173.4141,108.3262)"
                 id="g3510"><path
                   d="m 0,0 c 3.303,4.108 5.448,8.461 3.947,10.713 -1.051,1.576 -4.797,4.97 -7.361,6.961 -0.811,0.629 4.836,9.428 3.961,10.039 -1.389,0.969 -7.72,-7.658 -9.138,-6.828 -4.015,2.352 -7.823,3.925 -9.562,3.427 -2.142,-0.611 -4.847,-2.781 -7.394,-5.519 -0.723,-0.776 -11.186,3.726 -11.867,2.881 -0.835,-1.037 8.128,-7.433 7.411,-8.497 -2.57,-3.818 -4.186,-7.545 -3.45,-9.264 0.707,-1.651 3.476,-4.185 6.835,-6.622 1.164,-0.845 -3.04,-9.837 -1.796,-10.617 0.817,-0.512 5.191,7.455 6,7 2.945,-1.661 7.601,-3.165 9.361,-3.362 1.94,-0.214 5.355,1.947 8.656,4.99 0.795,0.733 9.223,-5.443 9.983,-4.628 C 6.302,-8.559 -0.646,-0.804 0,0"
                   style="fill:#4c1117;fill-opacity:1;fill-rule:nonzero;stroke:none"
                   id="path3512"
                   inkscape:connector-curvature="0" /></g></g></g></g></g></g><g
       id="g3514"><g
         id="g3516"
         clip-path="url(#clipPath3518)"><g
           id="g3522"><g
             id="g3524" /><g
             id="g3530"><g
               clip-path="url(#clipPath3526)"
               id="g3532"><g
                 transform="translate(172.3555,118.332)"
                 id="g3534"><path
                   d="m 0,0 c -0.757,1.136 -2.293,2.583 -4.14,4.017 -0.583,0.452 -6.585,-5.788 -7.215,-5.349 -1,0.697 3.349,8.059 2.328,8.656 -2.891,1.695 -5.633,2.826 -6.885,2.469 -1.542,-0.441 -3.489,-2.003 -5.324,-3.975 -0.52,-0.558 4.632,-4.503 4.141,-5.111 -0.6,-0.746 -6.833,1.834 -7.349,1.067 -1.85,-2.748 -3.014,-5.432 -2.484,-6.67 0.51,-1.188 2.503,-3.013 4.922,-4.768 0.837,-0.607 5.755,4.893 6.651,4.332 0.587,-0.369 -2.85,-6.821 -2.269,-7.149 2.121,-1.196 4.117,-2.066 5.384,-2.207 1.396,-0.155 3.855,1.402 6.232,3.592 0.572,0.529 -4.834,6.117 -4.287,6.703 0.516,0.552 6.988,-3.899 7.453,-3.32 C -0.464,-4.755 1.081,-1.621 0,0"
                   style="fill:#bd1319;fill-opacity:1;fill-rule:nonzero;stroke:none"
                   id="path3536"
                   inkscape:connector-curvature="0" /></g></g></g></g></g></g><g
       id="g3538"><g
         id="g3540"
         clip-path="url(#clipPath3542)"><g
           id="g3546"
           transform="translate(76.6021,223.7002)"><path
             d="m 0,0 c -4.776,4.217 -11.695,8.812 -14.993,2.651 -3.298,-6.159 -10.087,-19.568 -9.295,-27.575 -5.44,-5.78 -17.391,-17.152 -15.334,-24.259 1.671,-9.286 9.553,-8.432 9.553,-8.432 l 32.513,-3.503 11.652,15.921 7.152,27.954 C 21.248,-17.243 4.777,-4.216 0,0"
             style="fill:#910c1c;fill-opacity:1;fill-rule:nonzero;stroke:none"
             id="path3548"
             inkscape:connector-curvature="0" /></g><g
           id="g3550"
           transform="translate(243,99)"><path
             d="m 0,0 c 1.5,-6 -1,-11 -10,-10 -9.5,1 -12,-10 -12,-10 0,0 2,-3.5 6,-14 3.5,13 14.988,9.66 20,4 20.128,-1.384 24,24 24,24 0,0 -21,4 -28,6 m -164.433,-6.01 c -3.503,-3.625 -17.421,-9.794 -20.567,-11.09 3.09,-10.622 47.462,-28.905 47.462,-28.905 0,0 -0.252,13.756 0.551,18.997 -14.218,3.421 -27.446,20.998 -27.446,20.998 m 60.092,158.148 10.529,-11.909 c 0,0 19.013,6.204 23.956,1.24 -1.763,7.097 1.602,29.021 1.602,29.021 0,0 -34.239,1.432 -36.087,-18.352"
             style="fill:#910c1c;fill-opacity:1;fill-rule:evenodd;stroke:none"
             id="path3552"
             inkscape:connector-curvature="0" /></g><g
           id="g3554"
           transform="translate(79.0317,215.9717)"><path
             d="m 0,0 c -4.039,3.507 -9.885,7.334 -12.65,2.237 -2.766,-5.096 -8.455,-16.191 -7.765,-22.83 -4.572,-4.776 -14.621,-14.17 -12.868,-20.065 1.434,-7.701 8.078,-7.015 8.078,-7.015 l 27.428,-2.988 9.783,13.164 5.958,23.149 C 17.964,-14.348 4.039,-3.507 0,0"
             style="fill:#cda08a;fill-opacity:1;fill-rule:nonzero;stroke:none"
             id="path3556"
             inkscape:connector-curvature="0" /></g><g
           id="g3558"
           transform="translate(58.9355,197.1846)"><path
             d="M 0,0 -0.638,-3.611 28.807,-16.266 0,0 Z"
             style="fill:#7a5136;fill-opacity:1;fill-rule:nonzero;stroke:none"
             id="path3560"
             inkscape:connector-curvature="0" /></g></g></g></g></svg>