<?xml version="1.0" encoding="UTF-8" standalone="no"?>
<!-- Created with Inkscape (http://www.inkscape.org/) -->

<svg
   xmlns:dc="http://purl.org/dc/elements/1.1/"
   xmlns:cc="http://creativecommons.org/ns#"
   xmlns:rdf="http://www.w3.org/1999/02/22-rdf-syntax-ns#"
   xmlns:svg="http://www.w3.org/2000/svg"
   xmlns="http://www.w3.org/2000/svg"
   xmlns:sodipodi="http://sodipodi.sourceforge.net/DTD/sodipodi-0.dtd"
   xmlns:inkscape="http://www.inkscape.org/namespaces/inkscape"
   id="svg4463"
   version="1.1"
   inkscape:version="0.91 r13725"
   xml:space="preserve"
   width="220"
   height="198.75"
   viewBox="0 0 220 198.75"
   sodipodi:docname="mage.svg"><metadata
     id="metadata4469"><rdf:RDF><cc:Work
         rdf:about=""><dc:format>image/svg+xml</dc:format><dc:type
           rdf:resource="http://purl.org/dc/dcmitype/StillImage" /><dc:title></dc:title></cc:Work></rdf:RDF></metadata><defs
     id="defs4467"><clipPath
       clipPathUnits="userSpaceOnUse"
       id="clipPath4477"><path
         d="M 0,159 176,159 176,0 0,0 0,159 Z"
         id="path4479"
         inkscape:connector-curvature="0" /></clipPath><clipPath
       clipPathUnits="userSpaceOnUse"
       id="clipPath4629"><path
         d="M 0,159 176,159 176,0 0,0 0,159 Z"
         id="path4631"
         inkscape:connector-curvature="0" /></clipPath><clipPath
       clipPathUnits="userSpaceOnUse"
       id="clipPath4681"><path
         d="M 0,159 176,159 176,0 0,0 0,159 Z"
         id="path4683"
         inkscape:connector-curvature="0" /></clipPath></defs><sodipodi:namedview
     pagecolor="#ffffff"
     bordercolor="#666666"
     borderopacity="1"
     objecttolerance="10"
     gridtolerance="10"
     guidetolerance="10"
     inkscape:pageopacity="0"
     inkscape:pageshadow="2"
     inkscape:window-width="640"
     inkscape:window-height="480"
     id="namedview4465"
     showgrid="false"
     inkscape:zoom="1.1874214"
     inkscape:cx="110"
     inkscape:cy="99.375"
     inkscape:window-x="0"
     inkscape:window-y="0"
     inkscape:window-maximized="0"
     inkscape:current-layer="g4471" /><g
     id="g4471"
     inkscape:groupmode="layer"
     inkscape:label="mage"
     transform="matrix(1.25,0,0,-1.25,0,198.75)"><g
       id="g4473"><g
         id="g4475"
         clip-path="url(#clipPath4477)"><g
           id="g4481"
           transform="translate(143.9883,99.9795)"><path
             d="m 0,0 c 1.029,-1.99 2.058,-3.98 3.087,-5.972 1.847,-3.589 3.979,-7.185 -0.286,-10.608 -2.496,-0.915 -5.147,-1.175 -7.748,-1.521 -3.616,-0.48 -6.518,-1.9 -8.936,-4.714 -3.458,-4.024 -8.656,-5.264 -13.138,-7.658 -1.361,0.064 -2.66,-0.287 -3.891,-0.774 -10.444,-4.132 -21.416,-4.434 -32.398,-4.271 -7.279,0.11 -13.115,4.431 -19.354,7.488 -3.039,2.423 -6.43,3.551 -9.966,5.916 -3.691,2.468 -5.912,4.278 -7.358,8.135 6.865,-1.513 15.167,-0.14 20.49,3.525 2.019,1.39 4.401,2.134 7.501,3.122 -4.632,0.617 -3.552,4.564 -5.23,6.745 4.617,4.029 10.386,3.423 13.449,-1.405 -2.689,-3.904 -2.459,-6.279 1.424,-8.534 9.54,-5.54 19.19,-10.414 30.929,-9.303 5.832,0.553 10.887,2.708 16.105,4.787 4.365,0.416 8.414,2.796 13.091,1.693 2.059,-0.484 2.666,1.357 2.318,3.34 -0.718,4.08 -3.616,6.035 -7.999,5.432 -2.029,-0.279 -4.026,-1.915 -6.149,-0.269 -0.205,0.468 -0.222,0.941 -0.06,1.423 6.471,6.027 8.656,13.563 7.771,22.162 -0.273,2.642 -0.47,5.329 -2.451,7.417 -1.75,2.774 -2.773,5.954 -4.913,8.522 -0.976,1.171 -1.458,2.592 -0.642,4.127 3.678,1.083 4.461,-2.295 6.29,-4.068 3.063,-4.721 9.582,-7.503 14.585,-6.209 3.6,0.931 4.583,2.676 3.131,5.578 -10.306,3.894 -19.81,9.215 -29.163,15.026 -10.376,6.446 -21.266,5.018 -31.839,-0.264 -2.142,-1.46 -5.665,-1.763 -4.776,-5.747 -5.044,-1.29 -2.95,-7.384 -5.529,-11.767 -1.985,-3.375 -10.762,-6.833 -10.594,-12.397 2.984,1.503 5.147,3.715 7.541,5.565 13.092,10.122 28.729,9.932 39.666,-0.065 7.909,-7.23 9.774,-21.412 5.933,-31.555 -0.696,-1.835 -2.217,-2.83 -3.853,-3.727 -4.913,-2.696 -10.212,-2.732 -15.56,-2.226 -1.217,0.115 -2.835,0.232 -2.527,2.261 3.403,2.016 7.457,1.158 11.063,2.597 3.248,1.296 4.929,3.132 4.662,6.669 -0.289,3.822 -0.716,7.642 -1.905,11.28 -2.191,6.7 -9.824,10.754 -17.837,9.639 -6.452,-0.898 -12.745,-2.374 -18.561,-5.444 -6.973,-3.68 -12.864,-3.325 -17.403,3.341 -3.558,5.228 -9.058,4.347 -11.696,-1.499 -3.889,-8.621 -2.231,-16.823 2.868,-24.512 -0.501,-3.41 -2.978,-2.348 -4.865,-1.933 -2.427,0.534 -4.351,2.182 -6.315,3.653 -0.904,0.677 -1.328,1.25 -2.825,0.395 -4.793,9.146 -5.828,19.186 -1.15,28.636 4.06,10.537 11.289,18.418 21.423,23.002 14.946,6.76 30.162,12.984 47.166,11.978 8.973,-0.531 17.346,-2.673 24.411,-8.518 5.781,-4.781 12.755,-6.945 19.659,-9.314 3.92,-1.346 7.422,-3.133 7.29,-8.14 0.146,-1.557 -0.668,-2.709 -1.592,-3.818 C 10.225,24.501 6.675,22.427 2.881,20.853 -0.4,19.49 -2.366,17.527 -1.715,13.742 -2.426,9 -2.733,4.312 0,0"
             style="fill:#241b46;fill-opacity:1;fill-rule:evenodd;stroke:none"
             id="path4483"
             inkscape:connector-curvature="0" /></g><g
           id="g4485"
           transform="translate(102.834,88.793)"><path
             d="m 0,0 c 6.139,-1.748 12.098,-1.271 17.863,1.466 1.354,0.642 2.68,1.302 3.159,2.948 3.735,12.822 2.009,26.977 -11.584,34.623 -9.233,5.193 -22.956,3.406 -32.534,-4.503 -2.878,-2.377 -5.766,-4.739 -9.256,-7.606 -0.648,12.112 1.685,13.612 1.685,13.612 l 5.64,0.068 c 0,0 -4.439,0.041 -4.807,0.932 -1.151,0.29 1.698,4.553 2.5,4.834 3.334,1.166 4.167,1 7,1.5 -3,-0.167 -4.97,0.077 -5.081,0.612 -0.397,1.915 2.518,3.354 3.248,4.554 1.496,2.46 3.849,1 7.413,1.383 -3.987,0.775 -4.183,1.957 -1.635,3.464 1.851,1.093 3.743,2.118 5.618,3.173 2.451,-0.807 4.842,0.149 7.263,0.239 2.922,0.108 5.27,-0.58 5.186,-4.215 -0.166,-1.269 -0.644,-2.507 0.867,-3.482 3.215,-2.079 6.748,-3.511 10.35,-4.536 3.539,-1.007 4.93,2.514 7.043,4.398 5.806,1.728 7.117,1.125 7.249,-3.336 0.689,-4.626 5.163,-7.38 5.921,-11.971 C 35.814,26.94 33.917,16.609 27.16,7.212 L 27.174,7.203 C 27.182,6.23 25.285,4.991 26.94,4.411 c 2.652,-0.931 5.174,-1.81 4.791,-5.128 -0.35,-3.037 -3.544,-2.905 -5.52,-4.12 -14.057,-7.627 -27.945,-7.016 -41.691,0.841 -2.862,1.636 -5.844,3.087 -8.58,4.91 -2.087,1.391 -3.158,1.181 -2.607,3.627 0.75,3.333 -4.917,0.166 -5.667,2.333 -0.562,1.623 0.167,2.917 0.25,3.667 0.609,5.475 27.805,-5.755 9.155,-1.466 0.325,0.058 0.692,0.183 0.969,0.065 C -14.67,6.021 -7.47,2.687 0,0"
             style="fill:#5a4c89;fill-opacity:1;fill-rule:evenodd;stroke:none"
             id="path4487"
             inkscape:connector-curvature="0" /></g><g
           id="g4489"
           transform="translate(102.834,88.793)"><path
             d="m 0,0 c -8.73,0.276 -15.633,5.173 -22.928,9.075 -4.003,3.843 -8.354,3.683 -12.915,1.128 -3.778,-3.552 -7.353,-7.432 -12.964,-8.02 -5.718,1.936 -4.832,7.482 -5.79,11.624 -1.07,4.626 -0.527,9.478 1.702,14.049 3.083,6.324 9.322,7.396 13.85,2.104 6.24,-7.295 7.674,-7.35 16.237,-3.42 8.281,3.801 16.849,6.738 26.306,4.781 6.754,-1.398 11.309,-5.654 12.596,-12.393 0.402,-2.107 0.735,-4.23 1.023,-6.356 C 18.201,4.547 17.25,3.009 9.313,1.139 6.287,0.425 3.109,0.36 0,0"
             style="fill:#020202;fill-opacity:1;fill-rule:evenodd;stroke:none"
             id="path4491"
             inkscape:connector-curvature="0" /></g><g
           id="g4493"
           transform="translate(104.0391,145.9893)"><path
             d="M 0,0 C -0.95,3.752 -3.742,3.419 -6.441,2.677 -8.606,2.081 -10.57,1.381 -11.978,3.864 -1.234,9.705 9.889,10.891 20.561,4.49 30.35,-1.382 40.135,-7.093 50.864,-11.058 c 1.399,-3.388 -1.415,-4.089 -3.402,-4.541 -5.973,-1.354 -11.675,-0.754 -16.407,3.723 -1.506,1.798 -2.963,3.647 -5.073,4.808 -0.432,5.105 -4.503,2.187 -6.837,3.1 -0.682,-0.049 -1.352,-0.014 -1.997,0.25 -0.418,0.189 -0.804,0.429 -1.171,0.703 C 13.916,-1.189 11.602,0.179 8.924,0.883 8.49,0.961 8.061,1.061 7.63,1.146 4.951,1.662 2.604,-0.029 0,0"
             style="fill:#5f5291;fill-opacity:1;fill-rule:evenodd;stroke:none"
             id="path4495"
             inkscape:connector-curvature="0" /></g><g
           id="g4497"
           transform="translate(54.9941,130.0312)"><path
             d="m 0,0 c -6.266,-0.16 -10.194,-4.107 -13.888,-8.89 3.184,18.252 32.447,30.913 54.112,32.385 -4.587,-1.805 -9.328,-3.64 -12.575,-7.216 -1.643,-1.81 -7.56,-1.81 -7.56,-1.81 0,0 4.538,-0.327 4,-0.75 C 23.276,13.077 22.928,12.618 22.124,11.963 12.812,11.559 4.977,8.423 0,0"
             style="fill:#625594;fill-opacity:1;fill-rule:evenodd;stroke:none"
             id="path4499"
             inkscape:connector-curvature="0" /></g><g
           id="g4501"
           transform="translate(54.0273,90.9756)"><path
             d="M 0,0 C 4.321,2.674 8.643,5.348 12.964,8.021 13.783,7.743 15.537,8.386 15.237,7.004 14.522,3.715 15.81,2.729 18.819,2.925 19.651,2.979 20.651,2.779 20.558,1.695 20.482,0.822 19.632,0.317 18.768,0.22 13.415,-0.386 9.279,-3.479 5.065,-6.42 1.142,-9.158 -2.894,-9.194 -7.029,-6.936 c -3.332,1.46 -5.728,2.874 -6.498,4.96 -0.097,0.26 -2.5,2.501 -0.667,4.834 0,0 1.311,0.334 1.312,0.334 2.21,1.725 3.033,-0.882 4.323,-1.57 C -5.805,0.155 -3.392,-2.185 0,0"
             style="fill:#5c4e8c;fill-opacity:1;fill-rule:evenodd;stroke:none"
             id="path4503"
             inkscape:connector-curvature="0" /></g><g
           id="g4505"
           transform="translate(54.9941,130.0312)"><path
             d="m 0,0 c -0.459,3.033 1.117,4.979 3.404,6.646 4.067,2.962 8.815,4.443 13.329,6.462 2.368,1.059 3.717,-0.225 5.39,-1.144 C 21.142,10.38 20.337,8.672 19.179,7.214 18.256,6.052 13.756,5.969 13.756,5.969 c 0,0 4.244,-0.657 4.009,-1.037 C 16.863,3.478 15.962,2.024 15.062,0.57 14.903,0.315 10.339,-0.781 10.339,-0.781 c 0,0 4.583,0.75 3.82,-0.106 -0.559,-0.627 0.04,-1.43 -0.403,-2.144 C 13.435,-5.265 13.681,-8.923 9.024,-7.017 6.534,-4.012 4.046,-1.004 0,0"
             style="fill:#5a4d8a;fill-opacity:1;fill-rule:evenodd;stroke:none"
             id="path4507"
             inkscape:connector-curvature="0" /></g><g
           id="g4509"
           transform="translate(129.0449,83.9561)"><path
             d="m 0,0 c 1.148,2.131 5.216,2.093 4.645,5.152 -0.666,3.574 -4.383,2.57 -7.02,3.165 0.585,1.968 1.916,2.887 3.338,3.723 1.844,-1.702 3.387,0.148 4.961,0.55 6.322,1.616 11.138,-2.005 10.965,-8.417 C 16.834,2.136 15.571,0.579 13.847,1.193 8.94,2.94 4.635,-0.055 0,0"
             style="fill:#3b3063;fill-opacity:1;fill-rule:evenodd;stroke:none"
             id="path4511"
             inkscape:connector-curvature="0" /></g><g
           id="g4513"
           transform="translate(60.9839,73.0303)"><path
             d="m 0,0 c 0.637,-0.167 1.365,-0.187 1.898,-0.521 15.908,-9.933 32.435,-7.837 49.177,-2.688 1.524,0.469 3.254,2.252 4.962,0.171 10e-4,-0.001 -0.083,-0.042 -0.083,-0.042 -0.274,-0.689 -0.63,-1.315 -1.297,-1.703 -3.068,-1.425 -6.382,-2.091 -9.584,-3.116 -0.705,-0.268 -1.43,-0.46 -2.158,-0.652 -4.317,-1.131 -8.668,-2.026 -13.147,-2.179 -6.106,0.703 -12.434,-0.489 -18.313,2.116 -0.595,0.28 0.143,-0.118 -0.454,0.18 -6.466,3.238 -6.466,3.238 -6.956,-3.88 -0.054,-0.507 -0.157,-0.997 -0.285,-1.488 -1.262,-2.31 1.151,-6.107 -2.933,-7.269 -1.958,3.024 -1.368,6.389 -0.886,9.556 0.554,3.636 0.576,7.16 -0.208,10.721 C -0.181,-0.529 -0.09,-0.265 0,0"
             style="fill:#160e2e;fill-opacity:1;fill-rule:evenodd;stroke:none"
             id="path4515"
             inkscape:connector-curvature="0" /></g><g
           id="g4517"
           transform="translate(129.9941,96.0049)"><path
             d="M 0,0 C 4.716,9.79 6.355,20.171 5.949,30.945 10.614,25.78 9.066,19.538 8.634,13.655 8.201,7.768 5.086,3.157 0,0"
             style="fill:#3f3368;fill-opacity:1;fill-rule:evenodd;stroke:none"
             id="path4519"
             inkscape:connector-curvature="0" /></g><g
           id="g4521"
           transform="translate(135.0937,134.1133)"><path
             d="m 0,0 c 5.436,-1.792 10.741,-4.348 16.742,-2.337 1.666,0.559 3.237,0.936 3.069,3.155 2.949,-2.191 1.804,-4.079 -0.42,-5.916 C 14.053,-9.505 3.396,-6.708 0,0"
             style="fill:#3d3166;fill-opacity:1;fill-rule:evenodd;stroke:none"
             id="path4523"
             inkscape:connector-curvature="0" /></g><g
           id="g4525"
           transform="translate(156.957,128.0312)"><path
             d="m 0,0 c 0.224,-3.808 -2.658,-5.392 -5.219,-7.118 -3.527,-2.379 -7.147,-4.619 -10.728,-6.919 -0.961,4.349 1.359,6.637 5.105,7.866 C -6.793,-4.844 -3.449,-2.345 0,0"
             style="fill:#021d34;fill-opacity:1;fill-rule:evenodd;stroke:none"
             id="path4527"
             inkscape:connector-curvature="0" /></g><g
           id="g4529"
           transform="translate(64.0186,123.0146)"><path
             d="M 0,0 C 3.402,-0.708 3.449,2.671 4.731,3.985 5.398,0.819 4.558,-2.646 4.97,-6.557 2.154,-4.802 1.128,-2.36 0,0"
             style="fill:#473a76;fill-opacity:1;fill-rule:evenodd;stroke:none"
             id="path4531"
             inkscape:connector-curvature="0" /></g><g
           id="g4533"
           transform="translate(61.9595,52.0146)"><path
             d="M 0,0 C 2.445,2.23 -0.292,5.718 1.939,8 3.72,6.471 3.358,4.346 3.283,2.429 3.1,-2.26 3.974,-6.829 4.62,-11.419 c 0.748,-5.308 2.757,-9.89 7.902,-12.5 1.129,-0.572 2.828,-1.342 2.351,-2.804 -0.545,-1.671 -2.421,-1.375 -3.9,-1.232 -2.133,0.206 -3.97,1.53 -6.593,2.059 0.333,-3.126 2.703,-3.375 4.389,-4.303 15.332,-4.695 30.403,-3.031 45.332,1.842 1.568,0.511 3.05,1.294 4.699,1.551 1.828,0.203 3.616,0.577 4.976,1.947 2.172,2.185 2.889,4.423 0.124,6.737 -0.762,0.637 -1.496,1.303 -2.324,1.856 -5.774,3.863 -6.745,3.703 -10.56,-1.75 -1.065,-0.844 -2.28,-1.403 -3.599,-1.618 -2.786,-0.454 -4.503,0.23 -2.839,3.395 1.642,3.121 0.726,6.546 1.447,9.76 0.211,0.772 0.595,1.443 1.178,1.993 1.017,0.786 2.112,1.298 3.439,0.923 1.27,-1.967 2.557,-3.928 4.379,-5.459 1.346,-0.653 2.693,-1.305 4.041,-1.957 3.945,-2.278 8,-4.408 10.943,-8.048 0.882,-1.157 1.158,-2.436 0.784,-3.85 -0.525,-1.62 -1.459,-2.963 -2.748,-4.068 -16.403,-13.011 -48.113,-15.594 -65.745,-5.376 -1.08,0.878 -2.007,1.862 -2.228,3.318 -0.004,1.654 -0.007,3.309 -0.01,4.963 1.037,1.567 1.713,3.179 1.094,5.134 -1.208,3.818 -1.293,7.847 -2.128,11.739 -0.256,1.961 -0.363,3.933 -0.444,5.908 C -1.292,-0.452 -0.989,0.163 0,0"
             style="fill:#19153a;fill-opacity:1;fill-rule:evenodd;stroke:none"
             id="path4535"
             inkscape:connector-curvature="0" /></g><g
           id="g4537"
           transform="translate(113,47.9316)"><path
             d="m 0,0 c -0.978,-0.292 -1.955,-0.583 -2.933,-0.875 -0.605,0.247 -1.433,0.347 -1.714,0.898 -2.875,5.647 -5.503,11.372 -4.289,17.998 0.65,0.017 1.299,0.033 1.948,0.049 2.176,-2.306 2.277,-5.497 3.515,-8.204 0.17,-0.428 0.298,-0.868 0.412,-1.312 1.043,-1.826 -0.469,-5.165 3.228,-5.387 5.642,2.624 3.597,7.488 3.448,11.789 0.094,2.058 -2.188,3.879 -0.62,6.082 0.316,0.327 0.63,0.654 0.944,0.981 0.856,-1.43 1.272,-3.176 2.907,-4.046 C 7.557,14.424 8.329,10.886 8.961,7.323 9.326,5.262 8.854,3.389 7.014,2.088 5.205,-0.386 3.038,-1.656 0,0"
             style="fill:#530b13;fill-opacity:1;fill-rule:evenodd;stroke:none"
             id="path4539"
             inkscape:connector-curvature="0" /></g><g
           id="g4541"
           transform="translate(113,47.9316)"><path
             d="M 0,0 C 2.494,0.172 4.755,1.124 7.014,2.087 7.393,-0.854 4.729,-2.483 3.98,-4.939 1.453,-4.26 -1.281,-3.748 0,0"
             style="fill:#051d33;fill-opacity:1;fill-rule:evenodd;stroke:none"
             id="path4543"
             inkscape:connector-curvature="0" /></g><g
           id="g4545"
           transform="translate(60.8735,51.1133)"><path
             d="m 0,0 c -3.17,3.055 -2.668,7.083 -2.896,10.919 0.018,2.284 0.035,4.568 0.052,6.852 C -1.46,18.848 -2,21.318 0.12,21.862 2.386,19.668 2.641,16.771 1.979,14.089 0.895,9.699 1.306,5.298 1.086,0.901 0.724,0.602 0.362,0.301 0,0"
             style="fill:#4b0a11;fill-opacity:1;fill-rule:evenodd;stroke:none"
             id="path4547"
             inkscape:connector-curvature="0" /></g><g
           id="g4549"
           transform="translate(120.9961,143.0303)"><path
             d="M 0,0 C 0.729,-0.336 1.457,-0.672 2.187,-1.009 1.616,-2.098 1.041,-3.028 0.441,-3.8 0.38,-3.879 2.837,-5.697 2.837,-5.697 c 0,0 -2.759,1.451 -2.849,1.35 -2.693,-3.044 -5.95,-3.027 -11.395,-0.007 -0.213,0.118 -2.256,-1.343 -2.256,-1.343 0,0 1.267,1.91 1.093,2.013 -0.505,0.301 -1.028,0.625 -1.569,0.972 -1.744,1.118 -7.315,1.15 -2.818,5.671 0.415,0.443 0.849,0.818 1.298,1.13 0.132,0.091 -2.129,0.922 -2.129,0.922 0,0 2.816,-0.499 2.963,-0.425 1.777,0.899 3.774,0.939 5.913,0.43 C -9.383,2.794 -7.226,3.384 -8.121,1.595 -6.038,1.178 -3.954,0.095 0,0"
             style="fill:#4b0d0f;fill-opacity:1;fill-rule:evenodd;stroke:none"
             id="path4551"
             inkscape:connector-curvature="0" /></g><g
           id="g4553"
           transform="translate(99.2764,118.0938)"><path
             d="m 0,0 c 6.972,-0.083 11.073,-2.514 12.239,-7.148 0.481,-1.909 0.448,-3.678 -1.068,-5.061 -1.414,-1.29 -3.139,-1.098 -4.668,-0.292 -5.734,3.021 -11.133,2.544 -16.35,-1.228 -1.304,-0.943 -2.754,-1.08 -4.137,0.014 -1.587,1.256 -1.443,2.853 -0.909,4.521 C -12.918,-3.039 -7.84,0.093 0,0"
             style="fill:#493d78;fill-opacity:1;fill-rule:evenodd;stroke:none"
             id="path4555"
             inkscape:connector-curvature="0" /></g><g
           id="g4557"
           transform="translate(58.0435,117.0488)"><path
             d="m 0,0 c 5.147,-0.056 9.661,-2.883 11.123,-7.549 0.577,-1.841 -0.325,-3.569 -1.541,-4.804 -1.259,-1.28 -2.812,-0.727 -4.121,0.069 -2.991,1.82 -5.873,2.635 -9.207,0.56 -1.345,-0.838 -3.337,-0.81 -4.557,0.692 -1.263,1.553 -1.294,3.729 -0.4,5.172 C -6.712,-2.645 -4.443,0.622 0,0"
             style="fill:#0a0a0c;fill-opacity:1;fill-rule:evenodd;stroke:none"
             id="path4559"
             inkscape:connector-curvature="0" /></g><g
           id="g4561"
           transform="translate(120.9961,143.0303)"><path
             d="m 0,0 c 0.113,-0.477 0.334,-1.37 0.322,-1.373 -0.688,-0.182 -1.361,-0.519 -2.029,-0.903 -0.173,-0.099 -2.664,1.329 -2.664,1.329 0,0 1.967,-1.742 1.877,-1.797 -2.168,-1.311 -4.33,-2.648 -6.877,-0.206 -0.202,0.193 -0.414,0.364 -0.634,0.518 -0.154,0.108 1.342,1.818 1.342,1.818 0,0 -2.224,-1.298 -2.433,-1.199 -1.617,0.76 -3.446,1.123 -4.839,2.719 0.811,0.806 2.981,2.355 2.981,2.355 l 2.958,-1.041 -2.458,1.375 c 0,0 2.74,1.015 3.542,1.421 0.266,-0.049 0.53,-0.096 0.796,-0.141 2.77,-1.539 5.672,-2.862 8.147,-4.893 L 0,0 Z"
             style="fill:#bd1319;fill-opacity:1;fill-rule:evenodd;stroke:none"
             id="path4563"
             inkscape:connector-curvature="0" /></g><g
           id="g4565"
           transform="translate(121.0273,143.0127)"><path
             d="M 0,0 C -3.062,1.054 -5.789,2.666 -8.146,4.894 -4.761,4.379 -1.98,2.855 0,0"
             style="fill:#501316;fill-opacity:1;fill-rule:evenodd;stroke:none"
             id="path4567"
             inkscape:connector-curvature="0" /></g><g
           id="g4569"
           transform="translate(108.875,45.8516)"><path
             d="m 0,0 c -0.023,-4.251 1.6,-8.802 -3.119,-12.664 3.182,-0.035 5.23,0.802 7.246,1.773 1.191,0.69 1.865,1.83 2.641,2.908 0.565,0.787 1.373,1.743 2.425,0.965 0.862,-0.636 0.766,-1.793 0.399,-2.763 -1.036,-2.733 -2.858,-4.721 -5.692,-5.686 2.026,0.686 3.864,1.822 6.03,2.069 1.765,0.321 3.457,0.331 3.936,-1.858 0.456,-2.084 -0.778,-3.466 -2.345,-4.567 -5.216,-3.67 -11.353,-4.448 -17.408,-5.39 -11.013,-1.715 -22.024,-1.609 -33.008,0.351 -2.022,0.378 -3.724,1.323 -5.116,2.845 -1.092,1.194 -1.027,2.279 0.049,3.492 1.104,1.245 1.983,1.359 3.283,0.168 2.18,-1.997 4.917,-2.504 9.13,-2.562 -16.168,8.102 -12.297,22.46 -13.427,35.081 0.099,0.292 0.153,0.592 0.163,0.9 1.605,2.633 3.063,0.784 4.398,-0.24 3.506,-2.688 3.611,-6.841 4.418,-10.676 0.53,-2.701 1.245,-5.361 1.576,-8.114 0.36,-3.005 1.638,-5.593 4.382,-7.22 4.194,-2.662 8.332,-0.978 12.445,0.199 1.566,0.448 1.711,1.737 1.571,3.212 -0.366,3.806 0.045,7.657 -0.544,11.453 -0.661,4.247 2.03,6.083 5.355,7.239 3.591,1.25 6.667,-0.105 8.256,-3.514 C -1.835,4.997 -0.82,2.532 0,0"
             style="fill:#5a4c89;fill-opacity:1;fill-rule:evenodd;stroke:none"
             id="path4571"
             inkscape:connector-curvature="0" /></g><g
           id="g4573"
           transform="translate(77.7134,33.9336)"><path
             d="m 0,0 c -6.064,3.767 -4.208,10.417 -5.763,15.825 -0.562,3.702 -0.898,7.433 -1.403,11.143 -0.239,1.759 0.009,3.636 1.553,4.969 4.327,-1.705 8.831,-2.027 13.434,-1.916 1.869,0.044 3.958,0.704 5.566,-0.983 1.561,-1.62 1.517,-3.729 1.29,-5.646 C 13.97,17.385 14.979,11.472 15.539,5.56 15.821,2.564 14.697,1.044 12.208,0.373 8.201,-0.707 4.123,-1.731 0,0"
             style="fill:#700a24;fill-opacity:1;fill-rule:evenodd;stroke:none"
             id="path4575"
             inkscape:connector-curvature="0" /></g><g
           id="g4577"
           transform="translate(77.7134,33.9336)"><path
             d="m 0,0 c 3.553,0.375 7.128,0.612 10.653,1.167 2.808,0.441 4.777,1.329 3.872,5.226 -1.726,7.421 -1.503,15.056 -1.139,22.645 4.322,0.994 8.643,1.988 12.965,2.983 1.793,-6.367 2.141,-13.191 6.002,-18.898 -0.395,-0.401 -0.792,-0.802 -1.189,-1.204 -2.395,1.666 -2.497,4.604 -3.717,6.91 -1.805,3.406 -4.552,3.894 -7.558,2.725 -2.727,-1.062 -5.265,-2.369 -3.94,-6.636 C 17.16,11.02 15.783,6.639 16.871,2.544 17.111,1.639 16.51,1.017 15.872,0.425 12.732,-2.488 3.817,-2.741 0,0"
             style="fill:#251c47;fill-opacity:1;fill-rule:evenodd;stroke:none"
             id="path4579"
             inkscape:connector-curvature="0" /></g><g
           id="g4581"
           transform="translate(72.1006,65.8701)"><path
             d="m 0,0 c -0.05,-5.368 -0.1,-10.737 -0.15,-16.108 -1.342,3.71 -1.077,8.109 -4.929,10.753 -1.076,0.738 -1.834,1.232 -2.961,0.398 C -8.241,4.356 -8.218,4.371 0,0"
             style="fill:#251c48;fill-opacity:1;fill-rule:evenodd;stroke:none"
             id="path4583"
             inkscape:connector-curvature="0" /></g><g
           id="g4585"
           transform="translate(115.9951,68.9697)"><path
             d="m 0,0 c 0.632,-2.019 1.264,-4.038 1.896,-6.057 -5.092,1.269 -7.635,-1.302 -8.852,-5.874 -1.839,2.707 -2.695,5.746 -3.027,8.963 C -6.761,-1.626 -3.552,-0.233 0,0"
             style="fill:#760a22;fill-opacity:1;fill-rule:evenodd;stroke:none"
             id="path4587"
             inkscape:connector-curvature="0" /></g><g
           id="g4589"
           transform="translate(129.9824,26.0176)"><path
             d="m 0,0 c 0.6,-3.432 -2.873,-4.549 -3.985,-7.008 -8.323,-3.756 -16.941,-6.489 -26.048,-7.523 -10.151,-1.153 -20.206,-1.02 -29.793,3.029 -2.853,1.206 -5.827,2.702 -6.142,6.497 13.179,-7.352 27.184,-6.925 41.511,-4.766 C -15.46,-8.415 -7.24,-5.543 0,0"
             style="fill:#021d34;fill-opacity:1;fill-rule:evenodd;stroke:none"
             id="path4591"
             inkscape:connector-curvature="0" /></g><g
           id="g4593"
           transform="translate(69.9805,20.9893)"><path
             d="m 0,0 c 5.008,1.776 9.997,-0.301 15.03,-0.185 9.491,0.218 18.824,0.982 28.052,3.176 2.479,0.59 4.641,1.754 6.681,3.213 1.212,0.867 2.811,1.677 2.044,3.5 -0.944,2.236 -2.617,-0.166 -3.889,0.373 0.131,2.757 2.113,3.048 4.17,2.946 C 54.236,12.918 55.826,11.756 56.56,9.7 57.276,7.69 56.344,6.189 54.759,5.024 53.834,4.345 52.973,3.563 51.904,3.093 41.488,-0.741 30.797,-3.295 19.644,-3.279 12.944,-3.27 6.168,-3.354 0,0"
             style="fill:#504380;fill-opacity:1;fill-rule:evenodd;stroke:none"
             id="path4595"
             inkscape:connector-curvature="0" /></g><g
           id="g4597"
           transform="translate(121.8848,24.082)"><path
             d="M 0,0 C 0.406,0.521 0.773,1.077 1.225,1.555 2.857,3.284 5.76,4.812 2.871,7.568 0.579,9.755 -1.899,9.539 -3.986,6.984 -6.736,6.085 -9.484,5.185 -12.234,4.285 c 2.818,3.246 7.488,4.471 8.332,10.178 -1.93,-1.403 -2.703,-3.811 -4.981,-3.584 2.19,6.426 2.19,6.426 8.593,3.225 0.737,-0.37 1.538,-0.646 2.2,-1.119 C 4.292,11.282 7.965,9.496 7.508,6.726 6.952,3.358 4.306,0.233 0,0"
             style="fill:#271e4b;fill-opacity:1;fill-rule:evenodd;stroke:none"
             id="path4599"
             inkscape:connector-curvature="0" /></g><g
           id="g4601"
           transform="translate(109.0391,57.0391)"><path
             d="M 0,0 C 0.412,2.273 -1.348,5.349 1.729,6.613 4.008,7.551 6.762,8.705 8.853,5.875 9.122,4.076 9.734,2.25 9.59,0.486 9.299,-3.076 8.566,-6.58 3.955,-7.017 2.637,-7.91 1.758,-7.432 1.549,-6.009 1.245,-3.945 0.441,-2.031 -0.005,-0.017 L 0,0 Z"
             style="fill:#b60e1b;fill-opacity:1;fill-rule:evenodd;stroke:none"
             id="path4603"
             inkscape:connector-curvature="0" /></g><g
           id="g4605"
           transform="translate(109.0342,57.0225)"><path
             d="M 0,0 C 2.308,-1.775 0.468,-5.896 3.96,-7.001 2.44,-8.528 1.401,-8.165 1.005,-6.132 0.61,-4.101 -0.411,-2.164 0,0"
             style="fill:#760a22;fill-opacity:1;fill-rule:evenodd;stroke:none"
             id="path4607"
             inkscape:connector-curvature="0" /></g><g
           id="g4609"
           transform="translate(57.8335,117.1665)"><path
             d="M 0,0 C 5.447,-0.064 10.089,-5.212 11,-8.833 11.375,-10.324 10.517,-10.92 9.333,-12 8.229,-13.008 6.041,-11.437 4.833,-10.833 1.5,-9.167 -0.5,-9.5 -4,-11.5 c -1.092,-0.624 -3.282,-0.662 -4.362,0.193 -1.24,0.981 -1.274,3.188 -0.805,4.474 C -8.094,-3.891 -4.84,-0.481 0,0"
             style="fill:#493d78;fill-opacity:1;fill-rule:evenodd;stroke:none"
             id="path4611"
             inkscape:connector-curvature="0" /></g><g
           id="g4613"
           transform="translate(98.0703,116.1387)"><path
             d="m 0,0 c 3.433,0.104 6.617,-0.663 9.365,-2.801 1.789,-1.391 2.531,-3.436 1.407,-5.29 -1.081,-1.785 -2.828,-0.246 -3.888,0.458 -2.57,1.707 -5.97,0.489 -8.394,2.696 -0.662,0.602 -1.947,0.174 -2.502,-0.875 -1.117,-2.113 -3.563,-2.271 -5.211,-3.599 -0.654,-0.528 -1.409,-1.087 -2.214,-0.465 -0.991,0.766 -0.552,1.731 -0.169,2.697 C -9.877,-2.818 -5.424,-0.043 0,0"
             style="fill:#fbfbfb;fill-opacity:1;fill-rule:evenodd;stroke:none"
             id="path4615"
             inkscape:connector-curvature="0" /></g><g
           id="g4617"
           transform="translate(57.895,115.3438)"><path
             d="m 0,0 c 1.024,-0.266 2.008,-0.427 2.92,-0.775 3.147,-1.204 5.143,-3.523 6.121,-6.701 0.218,-0.71 -0.438,-1.553 -1.026,-1.348 -2.769,0.969 -6.036,1.165 -7.604,4.25 -0.413,0.813 -0.851,1.478 -1.834,1.178 -0.823,-0.252 -1.557,-0.798 -1.006,-1.801 1.509,-2.749 -1.181,-2.466 -2.33,-3.106 -0.775,-0.431 -1.992,-0.786 -2.651,0.356 -0.871,1.51 -0.21,2.959 0.658,4.172 C -5.114,-1.485 -2.68,-0.508 0,0"
             style="fill:#f4f5f5;fill-opacity:1;fill-rule:evenodd;stroke:none"
             id="path4619"
             inkscape:connector-curvature="0" /></g><g
           id="g4621"
           transform="translate(89.9844,40.6084)"><path
             d="m 0,0 c 0.607,-3.854 -1.644,-4.949 -5.343,-4.512 -7.963,0.942 -9.755,2.639 -10.604,10.623 -0.315,2.958 -1.479,5.835 -0.888,8.886 0.445,2.301 1.35,3.807 4.023,2.487 0.146,-0.071 0.325,-0.072 0.485,-0.118 C -0.76,14.053 -0.01,13.019 0,0"
             style="fill:#a00d19;fill-opacity:1;fill-rule:evenodd;stroke:none"
             id="path4623"
             inkscape:connector-curvature="0" /></g></g></g><g
       id="g4625"><g
         id="g4627"
         clip-path="url(#clipPath4629)"><g
           id="g4633"
           transform="translate(32.9883,58.7666)"><path
             d="M 0,0 C 0,0 11.619,6.463 13.333,8.884 14.36,6.406 15.927,-13.782 15.261,-17.449 9.76,-19.116 0.962,-17.729 0.962,-17.729 L 0,0"
             style="fill:#7a5136;fill-opacity:1;fill-rule:nonzero;stroke:none"
             id="path4635"
             inkscape:connector-curvature="0" /></g><g
           id="g4637"
           transform="translate(23.7783,71.96)"><path
             d="M 0,0 C 0,0 1.75,1.601 2.828,0.156 5.248,-3.085 5.236,-6.952 6.21,-12.697 6.684,-15.495 5.172,-14.903 3.994,-13.299 2.816,-11.695 0,0 0,0"
             style="fill:#a17966;fill-opacity:1;fill-rule:nonzero;stroke:none"
             id="path4639"
             inkscape:connector-curvature="0" /></g><g
           id="g4641"
           transform="translate(33.9502,58.9727)"><path
             d="m 0,0 c 0,0 15.705,6.844 17.871,7.511 1.027,-2.478 1.668,-21.166 1,-24.833 -5.5,-1.667 -18.166,-2.333 -18.166,-2.333 L 0,0"
             style="fill:#a17966;fill-opacity:1;fill-rule:nonzero;stroke:none"
             id="path4643"
             inkscape:connector-curvature="0" /></g><g
           id="g4645"
           transform="translate(20.6572,72.3008)"><path
             d="m 0,0 c 0,0 0.168,6.5 2.834,0 2.666,-6.5 3.684,-9.755 3.684,-9.755 0,0 4.149,-2.18 4.649,-2.296 0.5,-0.116 20.333,5.884 20.333,5.884 0,0 1.334,0.583 1.5,-1.5 0.268,-3.341 1.5,-25.167 1.5,-25.167 0,0 0.168,-1.666 -1,-2.166 -1.166,-0.5 -16.246,-6 -16.246,-6 0,0 -0.587,-0.834 -1.587,-0.667 -1,0.167 -5.5,1.333 -6.667,4.333 -1.166,3 -6.333,18.001 -9,37.334"
             style="fill:#910c1c;fill-opacity:1;fill-rule:nonzero;stroke:none"
             id="path4647"
             inkscape:connector-curvature="0" /></g><g
           id="g4649"
           transform="translate(21.8213,70.8174)"><path
             d="m 0,0 c 0,0 0.168,6.5 2.834,0 2.666,-6.5 3.684,-9.755 3.684,-9.755 0,0 -1.906,-4.307 -0.996,-11.505 0.39,-3.084 4.645,-19.074 3.478,-16.074 -1.166,3 -6.333,18.001 -9,37.334"
             style="fill:#800923;fill-opacity:1;fill-rule:nonzero;stroke:none"
             id="path4651"
             inkscape:connector-curvature="0" /></g><g
           id="g4653"
           transform="translate(28.4805,61.2949)"><path
             d="m 0,0 c 1.413,-0.691 4.032,-2.358 4.177,-2.423 -3.264,1.138 -3.639,0.712 -3.881,0.722 -0.287,0.011 -0.879,-3.11 -0.875,-3.281 0.162,-7.456 0.5,-8.061 2.087,-17.578 -1.754,6.6 -3.699,13.149 -3.337,19.732 C -1.733,-1.068 -0.442,0.217 0,0"
             style="fill:#b54f44;fill-opacity:1;fill-rule:nonzero;stroke:none"
             id="path4655"
             inkscape:connector-curvature="0" /></g><g
           id="g4657"
           transform="translate(34.8281,59.2813)"><path
             d="m 0,0 c 0.423,0.11 18.493,5.369 18.493,5.369 0,0 0.75,0.328 1.195,-0.387 0.149,-0.238 -3.294,-1.244 -3.294,-1.244 0,0 -10.909,-3.155 -15.321,-4.019 C -0.284,-0.547 -0.667,-0.376 0,0"
             style="fill:#b54f44;fill-opacity:1;fill-rule:nonzero;stroke:none"
             id="path4659"
             inkscape:connector-curvature="0" /></g><g
           id="g4661"
           transform="translate(36.4746,37.21)"><path
             d="m 0,0 c 0,0 0.239,-2.086 0.864,-2.085 0.94,0.002 0.479,1.833 0.313,3.25 0,0 -1.766,11.903 -2.625,17.313 -0.248,1.558 -0.256,3.468 -1.076,3.285 -0.82,-0.184 -0.086,-2.376 0,-3.598 C -2.087,11.965 0,0 0,0"
             style="fill:#830823;fill-opacity:1;fill-rule:nonzero;stroke:none"
             id="path4663"
             inkscape:connector-curvature="0" /></g><g
           id="g4665"
           transform="translate(47.0615,43.373)"><path
             d="m 0,0 c -3.073,-0.771 -5.687,1.554 -6.63,2.8 1.68,-1.367 4.625,-0.825 5.417,0.354 1.826,-0.758 4.016,0 4.75,1.528 C 3.259,3 2.287,0.573 0,0 M -1.592,4.994 C -3.342,2.389 -5.008,3.229 -8.425,4.233 -7.103,1.3 -3.766,-2.839 0.347,-1.673 3.937,-0.655 4.741,3.3 4.741,7.343 2.325,4.994 2.44,3.321 -1.592,4.994"
             style="fill:#f2cc18;fill-opacity:1;fill-rule:nonzero;stroke:none"
             id="path4667"
             inkscape:connector-curvature="0" /></g><g
           id="g4669"
           transform="translate(42.9131,50.8018)"><path
             d="M 0,0 C 0.736,-1.271 0.807,-2.606 0.157,-2.981 -0.492,-3.359 -1.614,-2.634 -2.354,-1.362 -3.088,-0.09 -3.158,1.246 -2.511,1.622 -1.861,1.997 -0.735,1.273 0,0"
             style="fill:#f2cc18;fill-opacity:1;fill-rule:nonzero;stroke:none"
             id="path4671"
             inkscape:connector-curvature="0" /></g><g
           id="g4673"
           transform="translate(49.7754,50.792)"><path
             d="m 0,0 c -0.253,-1.23 -0.966,-2.123 -1.595,-1.995 -0.629,0.128 -0.935,1.229 -0.684,2.463 0.254,1.23 0.967,2.124 1.595,1.997 C -0.055,2.335 0.253,1.232 0,0"
             style="fill:#f2cc18;fill-opacity:1;fill-rule:nonzero;stroke:none"
             id="path4675"
             inkscape:connector-curvature="0" /></g></g></g><g
       id="g4677"><g
         id="g4679"
         clip-path="url(#clipPath4681)"><g
           id="g4685"
           transform="translate(12.167,106)"><path
             d="m 0,0 c -1.083,-10.833 -1,-19.417 3.333,-22 2.334,3.917 5.334,6.167 9,6.667 -1.666,5.5 -1.916,11 -1,16.666 C 7.417,1.917 3.167,1.167 0,0"
             style="fill:#ac2020;fill-opacity:1;fill-rule:nonzero;stroke:none"
             id="path4687"
             inkscape:connector-curvature="0" /></g><g
           id="g4689"
           transform="translate(155.5,79.667)"><path
             d="m 0,0 5.029,-9.576 c 0,0 5.304,10.909 -2.984,18.542 C 0.386,5.53 0,0 0,0"
             style="fill:#ac2020;fill-opacity:1;fill-rule:nonzero;stroke:none"
             id="path4691"
             inkscape:connector-curvature="0" /></g><g
           id="g4693"
           transform="translate(139.75,39)"><path
             d="M 0,0 C 0,0 4,-1.75 9.5,-0.5 12,2.25 16.25,9.5 16.75,17 15,16.75 9.25,15.5 4.5,16.75 4,12.5 1.75,4.75 0,0"
             style="fill:#ac2020;fill-opacity:1;fill-rule:nonzero;stroke:none"
             id="path4695"
             inkscape:connector-curvature="0" /></g></g></g></g></svg>