<?xml version="1.0" encoding="UTF-8" standalone="no"?>
<!-- Created with Inkscape (http://www.inkscape.org/) -->

<svg
   xmlns:dc="http://purl.org/dc/elements/1.1/"
   xmlns:cc="http://creativecommons.org/ns#"
   xmlns:rdf="http://www.w3.org/1999/02/22-rdf-syntax-ns#"
   xmlns:svg="http://www.w3.org/2000/svg"
   xmlns="http://www.w3.org/2000/svg"
   xmlns:sodipodi="http://sodipodi.sourceforge.net/DTD/sodipodi-0.dtd"
   xmlns:inkscape="http://www.inkscape.org/namespaces/inkscape"
   id="svg3336"
   version="1.1"
   inkscape:version="0.91 r13725"
   xml:space="preserve"
   width="375"
   height="375"
   viewBox="0 0 375 375"
   sodipodi:docname="soldier_icon.svg"><metadata
     id="metadata3342"><rdf:RDF><cc:Work
         rdf:about=""><dc:format>image/svg+xml</dc:format><dc:type
           rdf:resource="http://purl.org/dc/dcmitype/StillImage" /><dc:title></dc:title></cc:Work></rdf:RDF></metadata><defs
     id="defs3340"><clipPath
       clipPathUnits="userSpaceOnUse"
       id="clipPath3350"><path
         d="M 0,300 300,300 300,0 0,0 0,300 Z"
         id="path3352"
         inkscape:connector-curvature="0" /></clipPath><clipPath
       clipPathUnits="userSpaceOnUse"
       id="clipPath3358"><path
         d="m 9.34326,246.997 287.72074,0 0,-194.0175 -287.72074,0 0,194.0175 z"
         id="path3360"
         inkscape:connector-curvature="0" /></clipPath><clipPath
       clipPathUnits="userSpaceOnUse"
       id="clipPath3374"><path
         d="M 0,300 300,300 300,0 0,0 0,300 Z"
         id="path3376"
         inkscape:connector-curvature="0" /></clipPath><clipPath
       clipPathUnits="userSpaceOnUse"
       id="clipPath3406"><path
         d="M 0,300 300,300 300,0 0,0 0,300 Z"
         id="path3408"
         inkscape:connector-curvature="0" /></clipPath><clipPath
       clipPathUnits="userSpaceOnUse"
       id="clipPath3446"><path
         d="M 0,300 300,300 300,0 0,0 0,300 Z"
         id="path3448"
         inkscape:connector-curvature="0" /></clipPath><clipPath
       clipPathUnits="userSpaceOnUse"
       id="clipPath3454"><path
         d="m 123.273,213.427 118.248,0 0,-126.2805 -118.248,0 0,126.2805 z"
         id="path3456"
         inkscape:connector-curvature="0" /></clipPath><clipPath
       clipPathUnits="userSpaceOnUse"
       id="clipPath3470"><path
         d="M 0,300 300,300 300,0 0,0 0,300 Z"
         id="path3472"
         inkscape:connector-curvature="0" /></clipPath><clipPath
       clipPathUnits="userSpaceOnUse"
       id="clipPath3478"><path
         d="m 126.821,209.639 111.154,0 0,-118.7054 -111.154,0 0,118.7054 z"
         id="path3480"
         inkscape:connector-curvature="0" /></clipPath><clipPath
       clipPathUnits="userSpaceOnUse"
       id="clipPath3494"><path
         d="M 0,300 300,300 300,0 0,0 0,300 Z"
         id="path3496"
         inkscape:connector-curvature="0" /></clipPath><clipPath
       clipPathUnits="userSpaceOnUse"
       id="clipPath3502"><path
         d="m 126.821,191.63 111.743,0 0,-100.6964 -111.743,0 0,100.6964 z"
         id="path3504"
         inkscape:connector-curvature="0" /></clipPath><clipPath
       clipPathUnits="userSpaceOnUse"
       id="clipPath3518"><path
         d="M 0,300 300,300 300,0 0,0 0,300 Z"
         id="path3520"
         inkscape:connector-curvature="0" /></clipPath><clipPath
       clipPathUnits="userSpaceOnUse"
       id="clipPath3526"><path
         d="m 169.993,113.742 42.232,0 0,-18.534 -42.232,0 0,18.534 z"
         id="path3528"
         inkscape:connector-curvature="0" /></clipPath><clipPath
       clipPathUnits="userSpaceOnUse"
       id="clipPath3542"><path
         d="M 0,300 300,300 300,0 0,0 0,300 Z"
         id="path3544"
         inkscape:connector-curvature="0" /></clipPath><clipPath
       clipPathUnits="userSpaceOnUse"
       id="clipPath3566"><path
         d="M 0,300 300,300 300,0 0,0 0,300 Z"
         id="path3568"
         inkscape:connector-curvature="0" /></clipPath></defs><sodipodi:namedview
     pagecolor="#ffffff"
     bordercolor="#666666"
     borderopacity="1"
     objecttolerance="10"
     gridtolerance="10"
     guidetolerance="10"
     inkscape:pageopacity="0"
     inkscape:pageshadow="2"
     inkscape:window-width="640"
     inkscape:window-height="480"
     id="namedview3338"
     showgrid="false"
     inkscape:zoom="2.2613333"
     inkscape:cx="187.5"
     inkscape:cy="187.5"
     inkscape:window-x="0"
     inkscape:window-y="0"
     inkscape:window-maximized="1"
     inkscape:current-layer="g3344" /><g
     id="g3344"
     inkscape:groupmode="layer"
     inkscape:label="soldier_icon"
     transform="matrix(1.25,0,0,-1.25,0,375)"><g
       id="g3346"><g
         id="g3348"
         clip-path="url(#clipPath3350)"><g
           id="g3354"><g
             id="g3356" /><g
             id="g3362"><g
               clip-path="url(#clipPath3358)"
               id="g3364"><g
                 transform="translate(123.0791,221.8765)"
                 id="g3366"><path
                   d="M 0,0 C -0.152,-0.242 -0.289,-0.483 -0.464,-0.725 -0.152,-0.294 -0.007,-0.058 0,0 m 170.003,-75.54 c -19.857,-2.523 -20.19,9.197 -20.19,9.197 1.336,17.49 -7.658,17.202 -5.922,21.478 1.837,4.527 6.417,6.515 8.932,0.403 9.449,15.933 -11.583,18.041 -18.989,19.004 -12.188,8.197 -25.452,19.61 -44.238,14.82 7.128,2.86 3.21,14.561 -6.656,17.932 -0.935,-8.063 -2.545,-11.717 -8.716,-12.003 -3.594,-0.411 -6.981,-1.123 -10.098,-2.04 -4.219,0.563 -8.645,0.742 -13.296,0.512 -6.392,-0.316 -13.083,-2.274 -19.272,-5.332 -2.58,5.32 -8.198,1.323 -12.302,-2.55 -1.066,-1.005 -2.087,-2.077 -3.074,-3.194 -6.182,1.354 -11.471,1.931 -15.685,1.809 -1.954,2.127 -4.537,3.836 -7.545,4.851 C -3.309,-3.774 0.033,0.284 0,0 2.016,3.205 2.035,6.336 0.296,8.338 -1.573,10.493 -3.689,11.03 -7.683,7.739 -11.012,4.996 -15.7,-2.578 -19.868,-11.391 c -0.819,-0.43 -1.581,-0.935 -2.277,-1.512 l 3.363,8.008 -66.142,30.016 -28.812,-11.972 13.924,-24.375 72.012,-15.146 1.429,3.403 c 0.1,-1.205 0.378,-2.4 0.81,-3.558 -2.289,-8.611 -3.2,-17.039 -2.808,-19.81 0.542,-3.841 2.623,-6.824 5.349,-6.311 2.727,0.514 5.911,1.815 5.908,9.565 -0.001,2.306 0.215,4.643 0.69,7.198 0.502,-0.222 1.018,-0.425 1.549,-0.605 4.036,-1.364 8.12,-1.213 11.498,0.128 1.859,-0.893 4.055,-1.839 6.474,-2.78 -6.507,-15.461 -9.172,-31.169 -9.483,-35.488 -0.241,-3.36 2.023,-12.857 6.383,-23.883 -1.569,1.148 -3.721,1.851 -5.828,1.866 -2.902,0.02 -5.703,-1.253 -6.716,-4.423 -0.127,-0.393 -0.203,-0.867 -0.231,-1.409 -0.015,-0.271 -0.017,-0.561 -0.008,-0.866 0.009,-0.306 0.029,-0.628 0.061,-0.965 0.125,-1.349 0.428,-2.944 0.884,-4.718 0.911,-3.548 2.434,-7.806 4.379,-12.246 3.888,-8.869 9.469,-18.519 15.198,-24.675 4.706,-4.407 15.447,-10.866 26.394,-15.938 5.471,-2.514 10.978,-4.582 15.803,-5.771 2.414,-0.598 4.658,-0.985 6.652,-1.147 0.998,-0.082 1.932,-0.11 2.793,-0.081 0.431,0.013 0.843,0.04 1.235,0.081 0.392,0.04 0.765,0.094 1.116,0.161 2.096,1.346 3.655,2.859 4.612,4.393 0.479,0.766 0.808,1.54 0.986,2.306 0.089,0.383 0.139,0.765 0.152,1.144 0.012,0.379 -0.012,0.755 -0.076,1.127 -0.491,2.974 -3.461,5.695 -8.256,7.67 -5.706,2.106 -16.436,6.311 -25.556,10.905 4.641,-1.9 9.873,-3.906 14.579,-5.397 11.766,2.52 25.266,4.123 28.116,9.711 4.923,-2.312 10.562,-3.29 14.831,-3.914 3.064,-0.446 18.86,0.001 21.095,3.982 1.625,7.812 19.336,13.634 16.042,0.282 25.102,9.439 12.208,18.06 1.198,17.688 0.586,0.045 9.016,4.292 12.967,17.054 2.197,7.101 14.84,7.618 27.582,2.266 1.545,4.882 -4.701,11.177 -14.135,13.709 11.953,0.94 24.805,11.534 14.135,10.178"
                   style="fill:#3c550b;fill-opacity:1;fill-rule:evenodd;stroke:none"
                   id="path3368"
                   inkscape:connector-curvature="0" /></g></g></g></g></g></g><g
       id="g3370"><g
         id="g3372"
         clip-path="url(#clipPath3374)"><g
           id="g3378"
           transform="translate(193.1611,101.2109)"><path
             d="m 0,0 c -13.478,0 -31.948,-0.5 -40.935,-3.002 -8.985,-2.501 -5.99,-11.005 -5.99,-11.005 0,0 15.975,-5.503 27.955,-8.004 12.228,3.45 27.955,7.003 28.954,13.006 C 10.982,-3.002 13.479,0 0,0"
             style="fill:#232222;fill-opacity:1;fill-rule:nonzero;stroke:none"
             id="path3380"
             inkscape:connector-curvature="0" /></g><g
           id="g3382"
           transform="translate(191.1641,104.2119)"><path
             d="m 0,0 c -13.479,0 -29.951,0.501 -38.938,-2.001 -8.985,-2.501 -5.99,-11.005 -5.99,-11.005 0,0 15.975,-5.503 27.955,-8.004 12.228,3.45 25.959,6.003 26.957,12.006 C 10.982,-3.001 13.479,0 0,0"
             style="fill:#302f2f;fill-opacity:1;fill-rule:nonzero;stroke:none"
             id="path3384"
             inkscape:connector-curvature="0" /></g><g
           id="g3386"
           transform="translate(148.0381,105.5605)"><path
             d="m 0,0 c -8.094,4.43 -17.25,3.259 -20.45,-2.614 -3.201,-5.873 0.765,-14.225 8.859,-18.655 8.094,-4.428 17.25,-3.258 20.451,2.616 C 12.061,-12.78 8.094,-4.429 0,0"
             style="fill:#313131;fill-opacity:1;fill-rule:nonzero;stroke:none"
             id="path3388"
             inkscape:connector-curvature="0" /></g><g
           id="g3390"
           transform="translate(147.1689,103.9658)"><path
             d="m 0,0 c -6.88,3.765 -14.662,2.77 -17.383,-2.223 -2.721,-4.992 0.651,-12.09 7.531,-15.855 6.879,-3.766 14.662,-2.771 17.382,2.222 C 10.251,-10.864 6.88,-3.765 0,0"
             style="fill:#484848;fill-opacity:1;fill-rule:nonzero;stroke:none"
             id="path3392"
             inkscape:connector-curvature="0" /></g><g
           id="g3394"
           transform="translate(176.4824,73.1045)"><path
             d="m 0,0 c -7.441,3.834 -28.399,11.543 -34.346,18.162 -4.817,5.362 -14.184,26.332 -17.029,30.381 -2.845,4.049 -12.19,5.675 -14.284,-0.561 -2.094,-6.236 9.037,-32.643 20.437,-43.887 9.131,-7.912 39.945,-19.931 48.734,-18.922 C 9.283,-10.754 7.443,-3.833 0,0"
             style="fill:#313131;fill-opacity:1;fill-rule:nonzero;stroke:none"
             id="path3396"
             inkscape:connector-curvature="0" /></g><g
           id="g3398"
           transform="translate(170.2393,72.1602)"><path
             d="m 0,0 c -6.55,3.374 -26.504,9.852 -31.737,15.678 -4.239,4.718 -11.916,24.332 -14.42,27.895 -2.503,3.563 -10.062,7.529 -8.915,1.854 1.429,-7.073 9.92,-30.953 21.085,-39.388 C -24.633,-1.163 -0.119,-9.019 5.798,-9.845 10.877,-6.261 6.55,-3.373 0,0"
             style="fill:#454444;fill-opacity:1;fill-rule:nonzero;stroke:none"
             id="path3400"
             inkscape:connector-curvature="0" /></g></g></g><g
       id="g3402"><g
         id="g3404"
         clip-path="url(#clipPath3406)"><g
           id="g3410"
           transform="translate(144.8784,199.7646)"><path
             d="m 0,0 c -20.436,5.405 -33.67,4.353 -34.292,-1.639 -0.621,-5.992 -2.798,-9.142 5.619,-13.286 8.417,-4.142 28.421,-10.484 41.625,-10.953 4.045,0.304 8.359,3.42 9.49,9.399 C 24.392,-6.156 9.256,-3.741 0,0"
             style="fill:#232222;fill-opacity:1;fill-rule:nonzero;stroke:none"
             id="path3412"
             inkscape:connector-curvature="0" /></g><g
           id="g3414"
           transform="translate(142.9067,197.084)"><path
             d="m 0,0 c -14.94,3.176 -27.652,4.567 -29.292,0.054 -1.675,-4.616 -0.157,-6.543 5.373,-9.858 7.162,-4.294 25.294,-9.332 37.045,-9.749 3.6,0.271 7.069,1.078 8.075,6.4 C 22.937,-3.967 8.238,-3.329 0,0"
             style="fill:#302f2f;fill-opacity:1;fill-rule:nonzero;stroke:none"
             id="path3416"
             inkscape:connector-curvature="0" /></g><g
           id="g3418"
           transform="translate(109.688,206.9619)"><path
             d="m 0,0 c -7.514,2.239 -14.916,-0.364 -16.535,-5.816 -1.618,-5.453 3.16,-11.688 10.674,-13.927 7.513,-2.24 14.916,0.364 16.534,5.816 C 12.292,-8.475 7.513,-2.239 0,0"
             style="fill:#484848;fill-opacity:1;fill-rule:nonzero;stroke:none"
             id="path3420"
             inkscape:connector-curvature="0" /></g><g
           id="g3422"
           transform="translate(110.2051,208.7041)"><path
             d="m 0,0 c -8.839,2.635 -17.548,-0.429 -19.453,-6.843 -1.903,-6.414 3.719,-13.75 12.557,-16.385 8.84,-2.634 17.549,0.429 19.453,6.843 C 14.461,-9.971 8.839,-2.635 0,0"
             style="fill:#313131;fill-opacity:1;fill-rule:nonzero;stroke:none"
             id="path3424"
             inkscape:connector-curvature="0" /></g><g
           id="g3426"
           transform="translate(28.4102,235.0771)"><path
             d="m 0,0 -27.423,-14.69 16.212,-22.754 72.962,-7.889 6.843,22.146 L 0,0 Z"
             style="fill:#747474;fill-opacity:1;fill-rule:nonzero;stroke:none"
             id="path3428"
             inkscape:connector-curvature="0" /></g><g
           id="g3430"
           transform="translate(32.2134,229.9033)"><path
             d="m 0,0 -19.763,-8.635 78.874,-19.009 -79.872,14.007 13.33,-15.182 67.854,-7.337 3.369,14.593 L 0,0 Z"
             style="fill:#a2a2a2;fill-opacity:1;fill-rule:nonzero;stroke:none"
             id="path3432"
             inkscape:connector-curvature="0" /></g><g
           id="g3434"
           transform="translate(113.6445,228.8721)"><path
             d="m 0,0 c -2.067,1.947 -4.22,2.271 -7.861,-1.381 -3.642,-3.651 -8.548,-14.376 -12.095,-25.723 -3.547,-11.349 -4.047,-26.093 -3.133,-29.841 0.915,-3.748 3.274,-6.495 5.929,-5.718 2.656,0.776 5.689,2.378 4.926,10.05 -0.579,5.819 0.196,11.96 2.839,21.656 3.728,13.675 9.923,23.083 9.919,22.675 C 2.211,-4.913 1.922,-1.811 0,0 m 0.524,-8.282 c -0.128,-0.255 -0.239,-0.507 -0.39,-0.764 0.268,0.459 0.389,0.706 0.39,0.764"
             style="fill:#877919;fill-opacity:1;fill-rule:nonzero;stroke:none"
             id="path3436"
             inkscape:connector-curvature="0" /></g><g
           id="g3438"
           transform="translate(109.5298,224.8984)"><path
             d="m 0,0 c -1.529,1.44 -3.123,1.68 -5.817,-1.022 -2.695,-2.703 -8.322,-14.64 -10.947,-23.038 -2.625,-8.398 -2.995,-23.31 -2.319,-26.084 0.678,-2.773 2.423,-4.806 4.388,-4.231 1.965,0.574 4.21,1.76 3.645,7.437 -0.429,4.306 0.145,12.852 2.101,20.027 2.746,10.075 8.824,20.071 9.248,20.608 C 1.646,-3.742 1.455,-1.371 0,0 m 0.1,-6.694 c 0.204,0.35 0.261,0.469 0.199,0.391 C 0.23,-6.434 0.177,-6.562 0.1,-6.694"
             style="fill:#a8961c;fill-opacity:1;fill-rule:nonzero;stroke:none"
             id="path3440"
             inkscape:connector-curvature="0" /></g></g></g><g
       id="g3442"><g
         id="g3444"
         clip-path="url(#clipPath3446)"><g
           id="g3450"><g
             id="g3452" /><g
             id="g3458"><g
               clip-path="url(#clipPath3454)"
               id="g3460"><g
                 transform="translate(240.0859,164.2412)"
                 id="g3462"><path
                   d="m 0,0 c -10.346,28.919 -27.689,46.338 -57.907,49.023 -17.042,1.515 -37.784,-7.737 -45.926,-21.009 -5.405,-8.81 -11.615,-16.745 -12.98,-42.021 1.035,-26.646 7.285,-34.883 12.98,-43.02 4.805,-12.611 28.503,-20.844 45.926,-20.01 C -25.186,-75.471 -9.952,-57.2 0,-26.013 1.961,-15.73 1.867,-6.78 0,0"
                   style="fill:#313131;fill-opacity:1;fill-rule:nonzero;stroke:none"
                   id="path3464"
                   inkscape:connector-curvature="0" /></g></g></g></g></g></g><g
       id="g3466"><g
         id="g3468"
         clip-path="url(#clipPath3470)"><g
           id="g3474"><g
             id="g3476" /><g
             id="g3482"><g
               clip-path="url(#clipPath3478)"
               id="g3484"><g
                 transform="translate(236.625,163.4033)"
                 id="g3486"><path
                   d="m 0,0 c -9.726,27.184 -26.028,43.558 -54.434,46.083 -16.019,1.424 -35.516,-7.273 -43.17,-19.75 -5.081,-8.281 -10.917,-15.74 -12.2,-39.499 0.972,-25.048 6.847,-32.79 12.2,-40.439 4.517,-11.854 26.793,-19.594 43.17,-18.81 C -23.676,-70.941 -9.355,-53.768 0,-24.451 1.844,-14.786 1.754,-6.373 0,0"
                   style="fill:#6b6b6b;fill-opacity:1;fill-rule:nonzero;stroke:none"
                   id="path3488"
                   inkscape:connector-curvature="0" /></g></g></g></g></g></g><g
       id="g3490"><g
         id="g3492"
         clip-path="url(#clipPath3494)"><g
           id="g3498"><g
             id="g3500" /><g
             id="g3506"><g
               clip-path="url(#clipPath3502)"
               id="g3508"><g
                 transform="translate(237.623,153.3984)"
                 id="g3510"><path
                   d="m 0,0 c -9.725,27.184 -26.028,35.554 -54.433,38.079 -16.02,1.424 -35.516,-7.273 -43.171,-19.75 -5.08,-8.281 -11.916,2.269 -13.198,-21.49 0.972,-25.048 6.847,-32.79 12.2,-40.44 4.517,-11.853 26.793,-19.593 43.17,-18.809 30.758,1.473 45.078,18.647 54.434,47.964 C 0.846,-4.781 1.754,-6.373 0,0"
                   style="fill:#5f5f5f;fill-opacity:1;fill-rule:nonzero;stroke:none"
                   id="path3512"
                   inkscape:connector-curvature="0" /></g></g></g></g></g></g><g
       id="g3514"><g
         id="g3516"
         clip-path="url(#clipPath3518)"><g
           id="g3522"><g
             id="g3524" /><g
             id="g3530"><g
               clip-path="url(#clipPath3526)"
               id="g3532"><g
                 transform="translate(203.1455,113.2168)"
                 id="g3534"><path
                   d="m 0,0 c -5.991,-2.501 -14.478,-6.503 -20.967,-6.003 -6.489,0.5 -13.477,3.001 -11.98,-9.005 0.36,-2.893 10.982,-3.001 15.973,-3.001 4.993,0 21.467,4.502 24.961,9.004 C 11.481,-4.502 5.99,2.501 0,0"
                   style="fill:#393939;fill-opacity:1;fill-rule:nonzero;stroke:none"
                   id="path3536"
                   inkscape:connector-curvature="0" /></g></g></g></g></g></g><g
       id="g3538"><g
         id="g3540"
         clip-path="url(#clipPath3542)"><g
           id="g3546"
           transform="translate(146.1011,136.6475)"><path
             d="m 0,0 c -0.328,4.029 4.987,12.216 12.19,15.548 -7.77,2.875 -15.623,8.598 -14.406,16.658 0.291,1.928 7.082,5.74 9.973,8.884 8.279,8.998 10.475,22.524 8.867,27.764 -2.217,7.218 -8.65,3.624 -13.299,0 -19.949,-15.548 -27.152,-49.974 -27.706,-56.638 -0.554,-6.663 10.528,-39.979 28.813,-56.637 3.879,-3.332 8.313,-0.556 11.083,5.553 1.442,5.857 0.648,19.884 -4.432,28.874 C 8.671,-5.729 0.15,-1.849 0,0"
             style="fill:#181818;fill-opacity:1;fill-rule:nonzero;stroke:none"
             id="path3548"
             inkscape:connector-curvature="0" /></g><g
           id="g3550"
           transform="translate(141.668,135.5371)"><path
             d="m 0,0 c -0.328,4.029 4.987,12.216 12.19,15.548 -7.769,2.874 -15.623,8.598 -14.406,16.658 0.291,1.928 7.082,5.74 9.974,8.884 8.277,8.998 10.474,22.524 8.865,27.764 -2.216,7.218 -8.649,3.624 -13.298,0 C -16.624,53.306 -23.827,18.879 -24.381,12.216 -24.935,5.553 -13.853,-25.542 4.433,-42.2 c 3.879,-3.332 8.311,-0.556 11.083,5.553 1.441,5.857 0.646,17.663 -4.434,26.652 C 8.672,-5.729 0.15,-1.85 0,0"
             style="fill:#4f4e4e;fill-opacity:1;fill-rule:nonzero;stroke:none"
             id="path3552"
             inkscape:connector-curvature="0" /></g><g
           id="g3554"
           transform="translate(152.75,125.542)"><path
             d="m 0,0 c -2.41,4.267 -10.932,8.146 -11.082,9.995 -0.328,4.029 4.987,12.216 12.19,15.548 -13.235,1.122 -27.398,0.914 -36.571,-3.332 -0.554,-6.663 10.528,-37.758 28.814,-54.416 3.879,-3.332 8.311,-0.556 11.083,5.553 C 5.875,-20.795 5.08,-8.989 0,0"
             style="fill:#333333;fill-opacity:1;fill-rule:nonzero;stroke:none"
             id="path3556"
             inkscape:connector-curvature="0" /></g><g
           id="g3558"
           transform="translate(133.9106,157.748)"><path
             d="m 0,0 c 0,0 -5.282,6.176 -3.325,11.105 2.363,5.952 13.091,13.562 15.515,17.769 5.026,8.722 0.956,14.452 -1.108,15.548 C 6.208,42.414 -10.25,20.115 -12.19,-2.221 -7.557,-3.331 0,0 0,0 m 12.19,-39.979 c -1.943,4.452 -9.149,5.474 -12.19,11.105 -2.519,4.664 -1.108,12.216 -1.108,12.216 0,0 -5.541,1.666 -9.975,0 2.217,-16.103 15.516,-36.648 23.273,-42.2 4.433,3.331 3.879,9.995 0,18.879"
             style="fill:#000000;fill-opacity:1;fill-rule:evenodd;stroke:none"
             id="path3560"
             inkscape:connector-curvature="0" /></g></g></g><g
       id="g3562"><g
         id="g3564"
         clip-path="url(#clipPath3566)"><g
           id="g3570"
           transform="translate(276.0293,148.2334)"><path
             d="m 0,0 c -12.758,-2.158 -12.98,7.004 -12.98,7.004 0.89,13.641 -5.18,13.677 -3.994,17.008 1.248,3.502 4.324,4.865 5.992,0 6.124,11.857 -7.807,14.753 -12.981,16.008 -8.838,7.598 -18.951,18.403 -34.23,16.28 5.937,1.729 2.695,12.395 -5.705,16.735 -0.815,-7.079 -2.225,-10.151 -7.721,-9.641 -9.636,0.235 -18.064,-2.12 -23.227,-5.366 -8.402,-4.548 -22.16,-17.544 -23.302,-30.115 -1.137,-12.508 -0.17,-20.868 -0.17,-20.868 0,0 1.615,-2.338 0.77,-6.304 -0.846,-3.966 -2.774,-15.578 0.935,-21.999 3.709,-6.421 8.876,-24.165 25.758,-27.765 -5.485,-3.721 7.954,-11.54 15.974,-8.004 -8.148,2.407 -3.289,4.792 -0.998,4.002 4.995,-4.756 13.467,-5.024 18.969,-5.003 2.556,0.01 15.242,2.385 16.973,6.003 1.249,6.732 14.349,13.16 11.981,2.001 17.325,9.884 8.632,15.645 0.865,14.505 0.421,0.083 6.384,4.123 9.112,14.516 1.501,5.715 9.899,6.585 17.979,2.994 0.954,3.735 -2.939,8.302 -8.986,10.005 C -1.357,-7.012 6.486,1.098 0,0"
             style="fill:#560a0a;fill-opacity:1;fill-rule:nonzero;stroke:none"
             id="path3572"
             inkscape:connector-curvature="0" /></g><g
           id="g3574"
           transform="translate(259.0557,141.2305)"><path
             d="M 0,0 C 7.171,0.933 6.987,0.036 9.984,3.001 0.319,6.606 0,13.006 0,13.006 c 0.837,12.823 -5.936,14.821 -4.991,18.009 1.037,3.506 0.465,8.464 5.99,7.003 -3.749,5.184 -7.119,4.824 -11.981,6.003 -8.308,7.142 -19.583,18.004 -33.946,16.007 1.088,4.128 4.652,8.927 0,13.007 -0.766,-6.655 -3.746,-6.472 -8.912,-5.992 -9.057,0.222 -16.979,-1.992 -21.833,-5.043 -7.898,-4.275 -20.83,-16.492 -21.904,-28.309 -0.494,-5.444 -0.567,-10.052 -0.499,-13.431 0.077,-3.918 4.975,16.758 20.201,18.759 -11.772,-5.381 -17.132,-20.276 -18.563,-26.453 -0.299,-1.288 8.285,-9.119 15.568,-10.565 -9.599,-3.448 -15.676,6.702 -15.032,4.981 1.837,-4.915 6.573,-14.85 16.03,-22.99 -17.604,6.212 -17.835,20.597 -18.091,17.996 -0.464,-4.713 -0.418,-10.628 1.829,-14.517 3.487,-6.035 11.375,-24.106 27.244,-27.491 -0.662,-3.247 -1.798,-6.076 1.997,-7.003 -0.17,5.765 5.835,6.746 7.988,6.002 4.695,-4.469 11.722,-6.092 16.896,-6.072 2.403,0.009 14.327,2.242 15.953,5.643 1.175,6.328 13.556,14.171 17.071,6.432 5.348,3.441 -4.432,7.075 -10.983,5.003 2.144,5.08 12.41,10.242 14.977,20.01 1.41,5.372 6.383,7.377 13.976,4.002 C 6.639,-2.493 5.685,-1.601 0,0"
             style="fill:#911515;fill-opacity:1;fill-rule:nonzero;stroke:none"
             id="path3576"
             inkscape:connector-curvature="0" /></g><g
           id="g3578"
           transform="translate(259.0557,141.2305)"><path
             d="M 0,0 C 7.171,0.933 6.987,0.036 9.984,3.001 0.319,6.606 0,13.006 0,13.006 c 0.229,3.501 -0.11,6.195 -0.704,8.326 -2.633,5.975 -12.181,3.604 -19.037,14.921 -5.899,9.735 -19.715,19.709 -37.168,11.769 -1.969,-0.895 -14.297,11.26 -33.945,-12.004 14.609,10.004 18.812,4.475 16.972,3.001 -5.428,-2.481 -10.034,-6.268 -12.978,-11.005 -3.444,-5.54 -5.219,-11.679 -5.991,-15.008 -0.298,-1.288 9.69,-9.559 16.973,-11.005 -9.599,-3.448 -14.621,-0.28 -13.978,-2.001 1.837,-4.915 4.519,-10.87 13.978,-19.01 -17.603,6.213 -19.713,19.61 -19.969,17.009 -0.464,-4.713 1.459,-9.641 3.706,-13.529 4.147,-4.364 14.285,-10.617 25.234,-14.855 3.111,-1.204 4.828,-4.212 3.01,-5.633 11.992,8.414 19.306,1.234 21.964,1 5.635,-0.494 9.384,7.39 12.979,10.005 9.926,7.22 13.474,7.312 20.392,7.852 1.557,2.096 2.86,4.449 3.571,7.156 1.41,5.372 6.383,7.377 13.976,4.002 C 6.639,-2.493 5.685,-1.601 0,0"
             style="fill:#a42525;fill-opacity:1;fill-rule:nonzero;stroke:none"
             id="path3580"
             inkscape:connector-curvature="0" /></g><g
           id="g3582"
           transform="translate(197.1543,141.2305)"><path
             d="m 0,0 c 3.242,-6.3 11.316,-9.005 17.972,-10.005 6.656,-1.001 15.974,5.002 17.971,9.004 C 32.615,-3.002 25.293,-5.003 19.969,-5.003 14.645,-5.003 7.54,-2.524 0,0 m 14.063,25.978 c 5.884,-0.537 13.542,-3.324 24.875,-9.97 -3.87,8.862 -16.03,14.401 -24.875,14.955 -8.844,0.554 -17.557,-3.397 -24.046,-10.801 7.186,3.6 17.965,6.369 24.046,5.816"
             style="fill:#911515;fill-opacity:1;fill-rule:evenodd;stroke:none"
             id="path3584"
             inkscape:connector-curvature="0" /></g></g></g></g></svg>